<svg width="21" height="21" viewBox="0 0 21 21" fill="none" xmlns="http://www.w3.org/2000/svg">
<path d="M10.3333 12.6323C11.4093 12.6323 12.2814 11.7601 12.2814 10.6842C12.2814 9.60827 11.4093 8.73608 10.3333 8.73608C9.25745 8.73608 8.38525 9.60827 8.38525 10.6842C8.38525 11.7601 9.25745 12.6323 10.3333 12.6323Z" fill="#FDB515"/>
<path d="M14.8925 7.23522C14.7861 6.96317 14.6611 6.76617 14.4547 6.56292C14.2514 6.35967 14.0544 6.23146 13.7824 6.12515C13.576 6.04385 13.2664 5.95004 12.6973 5.92502C12.0813 5.89688 11.8968 5.89062 10.3333 5.89062C8.773 5.89062 8.58851 5.89688 7.96937 5.92502C7.40027 5.95004 7.0907 6.04697 6.88432 6.12515C6.61228 6.23146 6.41528 6.35654 6.21203 6.56292C6.00878 6.76617 5.88057 6.96317 5.77426 7.23522C5.69295 7.44159 5.59914 7.75116 5.57413 8.32027C5.54598 8.93628 5.53973 9.12077 5.53973 10.6842C5.53973 12.2477 5.54598 12.4291 5.57413 13.0482C5.59914 13.6173 5.69608 13.9269 5.77426 14.1333C5.88057 14.4053 6.00565 14.6023 6.21203 14.8056C6.41528 15.0088 6.61228 15.137 6.88432 15.2433C7.0907 15.3246 7.40027 15.4185 7.96937 15.4435C8.58538 15.4716 8.76987 15.4779 10.3333 15.4779C11.8937 15.4779 12.0782 15.4716 12.6973 15.4435C13.2664 15.4185 13.576 15.3215 13.7824 15.2433C14.0544 15.137 14.2514 15.012 14.4547 14.8056C14.6579 14.6023 14.7861 14.4053 14.8925 14.1333C14.9738 13.9269 15.0676 13.6173 15.0926 13.0482C15.1207 12.4322 15.127 12.2477 15.127 10.6842C15.127 9.12077 15.1207 8.93941 15.0926 8.32027C15.0676 7.75116 14.9706 7.44159 14.8925 7.23522ZM10.3333 13.6861C8.67606 13.6861 7.33147 12.3415 7.33147 10.6842C7.33147 9.02696 8.67606 7.68237 10.3333 7.68237C11.9906 7.68237 13.3352 9.02696 13.3352 10.6842C13.3352 12.3415 11.9906 13.6861 10.3333 13.6861ZM13.4541 8.26398C13.0663 8.26398 12.7536 7.95129 12.7536 7.56355C12.7536 7.1758 13.0663 6.86311 13.4541 6.86311C13.8418 6.86311 14.1545 7.1758 14.1545 7.56355C14.1545 7.95129 13.8418 8.26398 13.4541 8.26398Z" fill="#FDB515"/>
<path d="M10.3333 0.684204C4.81111 0.684204 0.333313 5.162 0.333313 10.6842C0.333313 16.2064 4.81111 20.6842 10.3333 20.6842C15.8555 20.6842 20.3333 16.2064 20.3333 10.6842C20.3333 5.162 15.8555 0.684204 10.3333 0.684204ZM16.1463 13.0951C16.1182 13.7174 16.0181 14.1426 15.8743 14.5147C15.7242 14.8993 15.5241 15.2245 15.1989 15.5497C14.8736 15.8749 14.5484 16.0751 14.1638 16.2252C13.7917 16.369 13.3665 16.4691 12.7442 16.4972C12.1219 16.5254 11.9218 16.5316 10.3333 16.5316C8.74482 16.5316 8.54782 16.5254 7.92243 16.4972C7.30017 16.4691 6.8749 16.369 6.50279 16.2252C6.11818 16.0751 5.79297 15.8749 5.46777 15.5497C5.14257 15.2245 4.94244 14.8993 4.79235 14.5147C4.64851 14.1426 4.54845 13.7174 4.5203 13.0951C4.49216 12.4728 4.4859 12.2727 4.4859 10.6842C4.4859 9.09571 4.49216 8.89871 4.5203 8.27332C4.54845 7.65106 4.64851 7.22579 4.79235 6.85368C4.94244 6.46907 5.14257 6.14387 5.46777 5.81866C5.79297 5.49346 6.11818 5.29333 6.50279 5.14324C6.8749 4.9994 7.30017 4.89934 7.92243 4.8712C8.5447 4.84305 8.74482 4.8368 10.3333 4.8368C11.9218 4.8368 12.1188 4.84305 12.7442 4.8712C13.3665 4.89934 13.7917 4.9994 14.1638 5.14324C14.5484 5.29333 14.8736 5.49346 15.1989 5.81866C15.5241 6.14387 15.7242 6.46907 15.8743 6.85368C16.0181 7.22579 16.1182 7.65106 16.1463 8.27332C16.1745 8.89559 16.1807 9.09571 16.1807 10.6842C16.1807 12.2727 16.1745 12.4728 16.1463 13.0951Z" fill="#FDB515"/>
</svg>
