<svg width="30" height="30" viewBox="0 0 30 30" fill="none" xmlns="http://www.w3.org/2000/svg">
<path d="M14.9998 17.9221C16.6136 17.9221 17.9219 16.6138 17.9219 14.9999C17.9219 13.3861 16.6136 12.0778 14.9998 12.0778C13.3859 12.0778 12.0776 13.3861 12.0776 14.9999C12.0776 16.6138 13.3859 17.9221 14.9998 17.9221Z" fill="#007176"/>
<path d="M21.839 9.82643C21.6795 9.41836 21.4919 9.12286 21.1823 8.81798C20.8775 8.5131 20.582 8.3208 20.1739 8.16132C19.8643 8.03937 19.4 7.89866 18.5463 7.86113C17.6223 7.81892 17.3456 7.80954 15.0004 7.80954C12.6598 7.80954 12.3831 7.81892 11.4544 7.86113C10.6007 7.89866 10.1364 8.04406 9.82682 8.16132C9.41875 8.3208 9.12325 8.50841 8.81838 8.81798C8.5135 9.12286 8.32119 9.41836 8.16172 9.82643C8.03977 10.136 7.89905 10.6003 7.86152 11.454C7.81931 12.378 7.80994 12.6548 7.80994 15C7.80994 17.3452 7.81931 17.6172 7.86152 18.5459C7.89905 19.3996 8.04446 19.864 8.16172 20.1735C8.32119 20.5816 8.50881 20.8771 8.81838 21.182C9.12325 21.4868 9.41875 21.6792 9.82682 21.8386C10.1364 21.9606 10.6007 22.1013 11.4544 22.1388C12.3784 22.181 12.6551 22.1904 15.0004 22.1904C17.3409 22.1904 17.6176 22.181 18.5463 22.1388C19.4 22.1013 19.8643 21.9559 20.1739 21.8386C20.582 21.6792 20.8775 21.4915 21.1823 21.182C21.4872 20.8771 21.6795 20.5816 21.839 20.1735C21.961 19.864 22.1017 19.3996 22.1392 18.5459C22.1814 17.6219 22.1908 17.3452 22.1908 15C22.1908 12.6548 22.1814 12.3827 22.1392 11.454C22.1017 10.6003 21.9563 10.136 21.839 9.82643ZM15.0004 19.5028C12.5144 19.5028 10.4975 17.4859 10.4975 15C10.4975 12.514 12.5144 10.4972 15.0004 10.4972C17.4863 10.4972 19.5032 12.514 19.5032 15C19.5032 17.4859 17.4863 19.5028 15.0004 19.5028ZM19.6814 11.3696C19.0998 11.3696 18.6308 10.9005 18.6308 10.3189C18.6308 9.73731 19.0998 9.26826 19.6814 9.26826C20.263 9.26826 20.7321 9.73731 20.7321 10.3189C20.7321 10.9005 20.263 11.3696 19.6814 11.3696Z" fill="#007176"/>
<path d="M14.9998 0C6.71645 0 -0.000244141 6.7167 -0.000244141 15C-0.000244141 23.2833 6.71645 30 14.9998 30C23.2831 30 29.9998 23.2833 29.9998 15C29.9998 6.7167 23.2831 0 14.9998 0ZM23.7193 18.6163C23.677 19.5497 23.527 20.1876 23.3112 20.7458C23.0861 21.3227 22.7859 21.8105 22.2981 22.2983C21.8103 22.7861 21.3225 23.0863 20.7455 23.3114C20.1874 23.5272 19.5495 23.6773 18.6161 23.7195C17.6827 23.7617 17.3825 23.7711 14.9998 23.7711C12.617 23.7711 12.3215 23.7617 11.3834 23.7195C10.45 23.6773 9.81214 23.5272 9.25397 23.3114C8.67705 23.0863 8.18925 22.7861 7.70144 22.2983C7.21364 21.8105 6.91345 21.3227 6.68831 20.7458C6.47255 20.1876 6.32246 19.5497 6.28024 18.6163C6.23803 17.6829 6.22864 17.3827 6.22864 15C6.22864 12.6173 6.23803 12.3218 6.28024 11.3837C6.32246 10.4503 6.47255 9.81238 6.68831 9.25422C6.91345 8.6773 7.21364 8.18949 7.70144 7.70169C8.18925 7.21388 8.67705 6.9137 9.25397 6.68856C9.81214 6.4728 10.45 6.3227 11.3834 6.28049C12.3168 6.23827 12.617 6.22889 14.9998 6.22889C17.3825 6.22889 17.678 6.23827 18.6161 6.28049C19.5495 6.3227 20.1874 6.4728 20.7455 6.68856C21.3225 6.9137 21.8103 7.21388 22.2981 7.70169C22.7859 8.18949 23.0861 8.6773 23.3112 9.25422C23.527 9.81238 23.677 10.4503 23.7193 11.3837C23.7615 12.3171 23.7709 12.6173 23.7709 15C23.7709 17.3827 23.7615 17.6829 23.7193 18.6163Z" fill="#007176"/>
</svg>
