<svg width="11" height="11" viewBox="0 0 11 11" fill="none" xmlns="http://www.w3.org/2000/svg">
<path d="M9.89245 2.23522C9.78614 1.96317 9.66105 1.76617 9.45467 1.56292C9.25142 1.35967 9.05442 1.23146 8.78238 1.12515C8.576 1.04385 8.26643 0.950037 7.69733 0.925022C7.08132 0.896879 6.89683 0.890625 5.33335 0.890625C3.773 0.890625 3.58851 0.896879 2.96937 0.925022C2.40027 0.950037 2.0907 1.04697 1.88432 1.12515C1.61228 1.23146 1.41528 1.35654 1.21203 1.56292C1.00878 1.76617 0.880572 1.96317 0.774255 2.23522C0.692955 2.44159 0.599141 2.75116 0.574126 3.32027C0.545983 3.93628 0.539734 4.12077 0.539734 5.68425C0.539734 7.24772 0.545983 7.42909 0.574126 8.04822C0.599141 8.61733 0.696082 8.9269 0.774255 9.13328C0.880572 9.40532 1.00565 9.60232 1.21203 9.80557C1.41528 10.0088 1.61228 10.137 1.88432 10.2433C2.0907 10.3246 2.40027 10.4185 2.96937 10.4435C3.58538 10.4716 3.76987 10.4779 5.33335 10.4779C6.8937 10.4779 7.07819 10.4716 7.69733 10.4435C8.26643 10.4185 8.576 10.3215 8.78238 10.2433C9.05442 10.137 9.25142 10.012 9.45467 9.80557C9.65792 9.60232 9.78614 9.40532 9.89245 9.13328C9.97375 8.9269 10.0676 8.61733 10.0926 8.04822C10.1207 7.43221 10.127 7.24772 10.127 5.68425C10.127 4.12077 10.1207 3.93941 10.0926 3.32027C10.0676 2.75116 9.97063 2.44159 9.89245 2.23522ZM5.33335 8.68612C3.67606 8.68612 2.33147 7.34153 2.33147 5.68425C2.33147 4.02696 3.67606 2.68237 5.33335 2.68237C6.99064 2.68237 8.33523 4.02696 8.33523 5.68425C8.33523 7.34153 6.99064 8.68612 5.33335 8.68612ZM8.45405 3.26398C8.06631 3.26398 7.75361 2.95129 7.75361 2.56355C7.75361 2.1758 8.06631 1.86311 8.45405 1.86311C8.8418 1.86311 9.15449 2.1758 9.15449 2.56355C9.15449 2.95129 8.8418 3.26398 8.45405 3.26398Z" fill="#FDB515"/>
</svg>
