<svg width="288" height="247" viewBox="0 0 288 247" fill="none" xmlns="http://www.w3.org/2000/svg">
<path d="M1.14773 13H3.25568V8.05682H8.09091V6.28977H3.25568V3.13068H8.60227V1.36364H1.14773V13ZM12.8651 13.1761C14.2344 13.1761 15.0526 12.5341 15.4276 11.8011H15.4957V13H17.473V7.15909C17.473 4.85227 15.5923 4.15909 13.9276 4.15909C12.0923 4.15909 10.6832 4.97727 10.2287 6.56818L12.1491 6.84091C12.3537 6.24432 12.9332 5.73295 13.9389 5.73295C14.8935 5.73295 15.4162 6.22159 15.4162 7.07955V7.11364C15.4162 7.70455 14.7969 7.73295 13.2571 7.89773C11.5639 8.07955 9.9446 8.58523 9.9446 10.5511C9.9446 12.267 11.2003 13.1761 12.8651 13.1761ZM13.3991 11.6648C12.5412 11.6648 11.9276 11.2727 11.9276 10.517C11.9276 9.72727 12.6151 9.39773 13.5355 9.26705C14.0753 9.19318 15.1548 9.05682 15.4219 8.84091V9.86932C15.4219 10.8409 14.6378 11.6648 13.3991 11.6648ZM21.598 1.36364H19.5412V13H21.598V1.36364ZM25.7699 1.36364H23.7131V13H25.7699V1.36364ZM31.831 13H39.8082V11.2386H34.7401V11.1591L36.7457 9.11932C39.0071 6.94886 39.6321 5.89205 39.6321 4.57955C39.6321 2.63068 38.0469 1.20455 35.706 1.20455C33.3991 1.20455 31.7628 2.63636 31.7628 4.84659H33.7685C33.7685 3.65909 34.5185 2.91477 35.6776 2.91477C36.7855 2.91477 37.6094 3.59091 37.6094 4.6875C37.6094 5.65909 37.0185 6.35227 35.8707 7.51705L31.831 11.4773V13ZM46.0696 13.2216C48.8764 13.2273 50.5526 11.0114 50.5526 7.19318C50.5526 3.39773 48.8651 1.20455 46.0696 1.20455C43.2741 1.20455 41.5923 3.39205 41.5866 7.19318C41.5866 11.0057 43.2628 13.2216 46.0696 13.2216ZM46.0696 11.4432C44.6207 11.4432 43.7116 9.98864 43.7173 7.19318C43.723 4.42045 44.6264 2.96023 46.0696 2.96023C47.5185 2.96023 48.4219 4.42045 48.4276 7.19318C48.4276 9.98864 47.5241 11.4432 46.0696 11.4432ZM52.4403 13H60.4176V11.2386H55.3494V11.1591L57.3551 9.11932C59.6165 6.94886 60.2415 5.89205 60.2415 4.57955C60.2415 2.63068 58.6562 1.20455 56.3153 1.20455C54.0085 1.20455 52.3722 2.63636 52.3722 4.84659H54.3778C54.3778 3.65909 55.1278 2.91477 56.2869 2.91477C57.3949 2.91477 58.2188 3.59091 58.2188 4.6875C58.2188 5.65909 57.6278 6.35227 56.4801 7.51705L52.4403 11.4773V13ZM66.679 13.2216C69.4858 13.2273 71.1619 11.0114 71.1619 7.19318C71.1619 3.39773 69.4744 1.20455 66.679 1.20455C63.8835 1.20455 62.2017 3.39205 62.196 7.19318C62.196 11.0057 63.8722 13.2216 66.679 13.2216ZM66.679 11.4432C65.2301 11.4432 64.321 9.98864 64.3267 7.19318C64.3324 4.42045 65.2358 2.96023 66.679 2.96023C68.1278 2.96023 69.0312 4.42045 69.0369 7.19318C69.0369 9.98864 68.1335 11.4432 66.679 11.4432ZM83.456 4.5625H85.4844C85.4446 2.59659 83.7685 1.20455 81.2912 1.20455C78.848 1.20455 77.0128 2.57955 77.0185 4.63636C77.0185 6.30682 78.206 7.26705 80.1207 7.76136L81.4446 8.10227C82.7003 8.42045 83.5298 8.8125 83.5355 9.71591C83.5298 10.7102 82.5866 11.375 81.2116 11.375C79.8935 11.375 78.8707 10.7841 78.7855 9.5625H76.7116C76.7969 11.875 78.5185 13.1761 81.2287 13.1761C84.0185 13.1761 85.6378 11.7841 85.6435 9.73295C85.6378 7.71591 83.973 6.79545 82.223 6.38068L81.1321 6.10795C80.1776 5.88068 79.1435 5.47727 79.1548 4.50568C79.1605 3.63068 79.9446 2.98864 81.2628 2.98864C82.5185 2.98864 83.348 3.57386 83.456 4.5625ZM91.2955 13.1705C93.3295 13.1705 94.7273 12.1761 95.0909 10.6591L93.1705 10.4432C92.892 11.1818 92.2102 11.5682 91.3239 11.5682C89.9943 11.5682 89.1136 10.6932 89.0966 9.19886H95.1761V8.56818C95.1761 5.50568 93.3352 4.15909 91.1875 4.15909C88.6875 4.15909 87.0568 5.99432 87.0568 8.6875C87.0568 11.4261 88.6648 13.1705 91.2955 13.1705ZM89.1023 7.8125C89.1648 6.69886 89.9886 5.76136 91.2159 5.76136C92.3977 5.76136 93.1932 6.625 93.2045 7.8125H89.1023ZM96.9162 13H98.973V7.69318C98.973 6.61932 99.6889 5.89205 100.575 5.89205C101.445 5.89205 102.041 6.47727 102.041 7.375V13H104.058V7.55682C104.058 6.57386 104.643 5.89205 105.638 5.89205C106.467 5.89205 107.126 6.38068 107.126 7.46023V13H109.189V7.14205C109.189 5.19318 108.064 4.15909 106.462 4.15909C105.195 4.15909 104.229 4.78409 103.842 5.75568H103.751C103.416 4.76705 102.57 4.15909 101.393 4.15909C100.223 4.15909 99.348 4.76136 98.9844 5.75568H98.8821V4.27273H96.9162V13ZM115.139 13.1705C117.173 13.1705 118.571 12.1761 118.935 10.6591L117.014 10.4432C116.736 11.1818 116.054 11.5682 115.168 11.5682C113.838 11.5682 112.957 10.6932 112.94 9.19886H119.02V8.56818C119.02 5.50568 117.179 4.15909 115.031 4.15909C112.531 4.15909 110.901 5.99432 110.901 8.6875C110.901 11.4261 112.509 13.1705 115.139 13.1705ZM112.946 7.8125C113.009 6.69886 113.832 5.76136 115.06 5.76136C116.241 5.76136 117.037 6.625 117.048 7.8125H112.946ZM127.658 6.57955C127.374 5.10227 126.192 4.15909 124.146 4.15909C122.044 4.15909 120.612 5.19318 120.618 6.80682C120.612 8.07955 121.396 8.92045 123.072 9.26705L124.561 9.57955C125.362 9.75568 125.737 10.0795 125.737 10.5739C125.737 11.1705 125.089 11.6193 124.112 11.6193C123.169 11.6193 122.555 11.2102 122.379 10.4261L120.374 10.6193C120.629 12.2216 121.976 13.1705 124.118 13.1705C126.3 13.1705 127.839 12.0398 127.845 10.3864C127.839 9.14205 127.038 8.38068 125.391 8.02273L123.902 7.70455C123.016 7.50568 122.663 7.19886 122.669 6.69318C122.663 6.10227 123.317 5.69318 124.175 5.69318C125.124 5.69318 125.624 6.21023 125.783 6.78409L127.658 6.57955ZM133.899 4.27273H132.178V2.18182H130.121V4.27273H128.882V5.86364H130.121V10.7159C130.109 12.358 131.303 13.1648 132.848 13.1193C133.433 13.1023 133.837 12.9886 134.058 12.9148L133.712 11.3068C133.598 11.3352 133.365 11.3864 133.109 11.3864C132.592 11.3864 132.178 11.2045 132.178 10.375V5.86364H133.899V4.27273ZM139.389 13.1705C141.423 13.1705 142.821 12.1761 143.185 10.6591L141.264 10.4432C140.986 11.1818 140.304 11.5682 139.418 11.5682C138.088 11.5682 137.207 10.6932 137.19 9.19886H143.27V8.56818C143.27 5.50568 141.429 4.15909 139.281 4.15909C136.781 4.15909 135.151 5.99432 135.151 8.6875C135.151 11.4261 136.759 13.1705 139.389 13.1705ZM137.196 7.8125C137.259 6.69886 138.082 5.76136 139.31 5.76136C140.491 5.76136 141.287 6.625 141.298 7.8125H137.196ZM145.01 13H147.067V7.86932C147.067 6.76136 147.902 5.97727 149.033 5.97727C149.379 5.97727 149.811 6.03977 149.987 6.09659V4.20455C149.8 4.17045 149.476 4.14773 149.249 4.14773C148.249 4.14773 147.413 4.71591 147.095 5.72727H147.004V4.27273H145.01V13ZM155.413 13H157.521V8.05682H162.357V6.28977H157.521V3.13068H162.868V1.36364H155.413V13ZM164.697 13H166.754V4.27273H164.697V13ZM165.732 3.03409C166.385 3.03409 166.919 2.53409 166.919 1.92045C166.919 1.30114 166.385 0.801136 165.732 0.801136C165.072 0.801136 164.538 1.30114 164.538 1.92045C164.538 2.53409 165.072 3.03409 165.732 3.03409ZM170.926 7.88636C170.926 6.625 171.688 5.89773 172.773 5.89773C173.835 5.89773 174.472 6.59659 174.472 7.76136V13H176.528V7.44318C176.534 5.35227 175.341 4.15909 173.54 4.15909C172.233 4.15909 171.335 4.78409 170.938 5.75568H170.835V4.27273H168.869V13H170.926V7.88636ZM181.131 13.1761C182.5 13.1761 183.318 12.5341 183.693 11.8011H183.761V13H185.739V7.15909C185.739 4.85227 183.858 4.15909 182.193 4.15909C180.358 4.15909 178.949 4.97727 178.494 6.56818L180.415 6.84091C180.619 6.24432 181.199 5.73295 182.205 5.73295C183.159 5.73295 183.682 6.22159 183.682 7.07955V7.11364C183.682 7.70455 183.062 7.73295 181.523 7.89773C179.83 8.07955 178.21 8.58523 178.21 10.5511C178.21 12.267 179.466 13.1761 181.131 13.1761ZM181.665 11.6648C180.807 11.6648 180.193 11.2727 180.193 10.517C180.193 9.72727 180.881 9.39773 181.801 9.26705C182.341 9.19318 183.42 9.05682 183.688 8.84091V9.86932C183.688 10.8409 182.903 11.6648 181.665 11.6648ZM189.864 1.36364H187.807V13H189.864V1.36364ZM196.038 13H198.146V8.73864H200.294L202.578 13H204.93L202.413 8.38636C203.783 7.83523 204.504 6.66477 204.504 5.08523C204.504 2.86364 203.072 1.36364 200.402 1.36364H196.038V13ZM198.146 6.98864V3.125H200.078C201.652 3.125 202.357 3.84659 202.357 5.08523C202.357 6.32386 201.652 6.98864 200.089 6.98864H198.146ZM210.092 13.1705C212.126 13.1705 213.524 12.1761 213.888 10.6591L211.967 10.4432C211.689 11.1818 211.007 11.5682 210.121 11.5682C208.791 11.5682 207.911 10.6932 207.893 9.19886H213.973V8.56818C213.973 5.50568 212.132 4.15909 209.984 4.15909C207.484 4.15909 205.854 5.99432 205.854 8.6875C205.854 11.4261 207.462 13.1705 210.092 13.1705ZM207.899 7.8125C207.962 6.69886 208.786 5.76136 210.013 5.76136C211.195 5.76136 211.99 6.625 212.001 7.8125H207.899ZM219.509 16.4545C221.866 16.4545 223.605 15.375 223.605 13.142V4.27273H221.577V5.71591H221.463C221.151 5.08523 220.497 4.15909 218.957 4.15909C216.94 4.15909 215.355 5.73864 215.355 8.60795C215.355 11.4545 216.94 12.875 218.952 12.875C220.446 12.875 221.145 12.0739 221.463 11.4318H221.565V13.0852C221.565 14.3693 220.713 14.8977 219.543 14.8977C218.304 14.8977 217.759 14.3125 217.509 13.8011L215.656 14.25C216.031 15.4716 217.287 16.4545 219.509 16.4545ZM219.526 11.2614C218.168 11.2614 217.452 10.2045 217.452 8.59659C217.452 7.01136 218.156 5.84659 219.526 5.84659C220.849 5.84659 221.577 6.94318 221.577 8.59659C221.577 10.2614 220.838 11.2614 219.526 11.2614ZM225.713 13H227.77V4.27273H225.713V13ZM226.747 3.03409C227.401 3.03409 227.935 2.53409 227.935 1.92045C227.935 1.30114 227.401 0.801136 226.747 0.801136C226.088 0.801136 225.554 1.30114 225.554 1.92045C225.554 2.53409 226.088 3.03409 226.747 3.03409ZM236.783 6.57955C236.499 5.10227 235.317 4.15909 233.271 4.15909C231.169 4.15909 229.737 5.19318 229.743 6.80682C229.737 8.07955 230.521 8.92045 232.197 9.26705L233.686 9.57955C234.487 9.75568 234.862 10.0795 234.862 10.5739C234.862 11.1705 234.214 11.6193 233.237 11.6193C232.294 11.6193 231.68 11.2102 231.504 10.4261L229.499 10.6193C229.754 12.2216 231.101 13.1705 233.243 13.1705C235.425 13.1705 236.964 12.0398 236.97 10.3864C236.964 9.14205 236.163 8.38068 234.516 8.02273L233.027 7.70455C232.141 7.50568 231.788 7.19886 231.794 6.69318C231.788 6.10227 232.442 5.69318 233.3 5.69318C234.249 5.69318 234.749 6.21023 234.908 6.78409L236.783 6.57955ZM243.024 4.27273H241.303V2.18182H239.246V4.27273H238.007V5.86364H239.246V10.7159C239.234 12.358 240.428 13.1648 241.973 13.1193C242.558 13.1023 242.962 12.9886 243.183 12.9148L242.837 11.3068C242.723 11.3352 242.49 11.3864 242.234 11.3864C241.717 11.3864 241.303 11.2045 241.303 10.375V5.86364H243.024V4.27273ZM244.744 13H246.801V7.86932C246.801 6.76136 247.636 5.97727 248.767 5.97727C249.114 5.97727 249.545 6.03977 249.722 6.09659V4.20455C249.534 4.17045 249.21 4.14773 248.983 4.14773C247.983 4.14773 247.148 4.71591 246.83 5.72727H246.739V4.27273H244.744V13ZM253.428 13.1761C254.797 13.1761 255.615 12.5341 255.99 11.8011H256.058V13H258.036V7.15909C258.036 4.85227 256.155 4.15909 254.49 4.15909C252.655 4.15909 251.246 4.97727 250.791 6.56818L252.712 6.84091C252.916 6.24432 253.496 5.73295 254.501 5.73295C255.456 5.73295 255.979 6.22159 255.979 7.07955V7.11364C255.979 7.70455 255.359 7.73295 253.82 7.89773C252.126 8.07955 250.507 8.58523 250.507 10.5511C250.507 12.267 251.763 13.1761 253.428 13.1761ZM253.962 11.6648C253.104 11.6648 252.49 11.2727 252.49 10.517C252.49 9.72727 253.178 9.39773 254.098 9.26705C254.638 9.19318 255.717 9.05682 255.984 8.84091V9.86932C255.984 10.8409 255.2 11.6648 253.962 11.6648ZM264.462 4.27273H262.74V2.18182H260.683V4.27273H259.445V5.86364H260.683V10.7159C260.672 12.358 261.865 13.1648 263.411 13.1193C263.996 13.1023 264.399 12.9886 264.621 12.9148L264.274 11.3068C264.161 11.3352 263.928 11.3864 263.672 11.3864C263.155 11.3864 262.74 11.2045 262.74 10.375V5.86364H264.462V4.27273ZM266.182 13H268.239V4.27273H266.182V13ZM267.216 3.03409C267.869 3.03409 268.403 2.53409 268.403 1.92045C268.403 1.30114 267.869 0.801136 267.216 0.801136C266.557 0.801136 266.023 1.30114 266.023 1.92045C266.023 2.53409 266.557 3.03409 267.216 3.03409ZM274.161 13.1705C276.717 13.1705 278.342 11.3693 278.342 8.67045C278.342 5.96591 276.717 4.15909 274.161 4.15909C271.604 4.15909 269.979 5.96591 269.979 8.67045C269.979 11.3693 271.604 13.1705 274.161 13.1705ZM274.172 11.5227C272.757 11.5227 272.064 10.2614 272.064 8.66477C272.064 7.06818 272.757 5.78977 274.172 5.78977C275.564 5.78977 276.257 7.06818 276.257 8.66477C276.257 10.2614 275.564 11.5227 274.172 11.5227ZM282.145 7.88636C282.145 6.625 282.906 5.89773 283.991 5.89773C285.054 5.89773 285.69 6.59659 285.69 7.76136V13H287.747V7.44318C287.753 5.35227 286.56 4.15909 284.759 4.15909C283.452 4.15909 282.554 4.78409 282.156 5.75568H282.054V4.27273H280.088V13H282.145V7.88636ZM5.09091 39C8.63636 39 10.7386 36.8068 10.7386 33.1705C10.7386 29.5455 8.63636 27.3636 5.17045 27.3636H1.14773V39H5.09091ZM3.25568 37.1761V29.1875H5.05114C7.41477 29.1875 8.64773 30.5057 8.64773 33.1705C8.64773 35.8466 7.41477 37.1761 4.98864 37.1761H3.25568ZM16.5142 39.1705C18.5483 39.1705 19.946 38.1761 20.3097 36.6591L18.3892 36.4432C18.1108 37.1818 17.429 37.5682 16.5426 37.5682C15.2131 37.5682 14.3324 36.6932 14.3153 35.1989H20.3949V34.5682C20.3949 31.5057 18.554 30.1591 16.4062 30.1591C13.9062 30.1591 12.2756 31.9943 12.2756 34.6875C12.2756 37.4261 13.8835 39.1705 16.5142 39.1705ZM14.321 33.8125C14.3835 32.6989 15.2074 31.7614 16.4347 31.7614C17.6165 31.7614 18.4119 32.625 18.4233 33.8125H14.321ZM24.6463 39.1761C26.0156 39.1761 26.8338 38.5341 27.2088 37.8011H27.277V39H29.2543V33.1591C29.2543 30.8523 27.3736 30.1591 25.7088 30.1591C23.8736 30.1591 22.4645 30.9773 22.0099 32.5682L23.9304 32.8409C24.1349 32.2443 24.7145 31.733 25.7202 31.733C26.6747 31.733 27.1974 32.2216 27.1974 33.0795V33.1136C27.1974 33.7045 26.5781 33.733 25.0384 33.8977C23.3452 34.0795 21.7259 34.5852 21.7259 36.5511C21.7259 38.267 22.9815 39.1761 24.6463 39.1761ZM25.1804 37.6648C24.3224 37.6648 23.7088 37.2727 23.7088 36.517C23.7088 35.7273 24.3963 35.3977 25.3168 35.267C25.8565 35.1932 26.9361 35.0568 27.2031 34.8409V35.8693C27.2031 36.8409 26.419 37.6648 25.1804 37.6648ZM34.5611 39.1534C36.0611 39.1534 36.7372 38.2614 37.0611 37.625H37.1861V39H39.2088V27.3636H37.1463V31.7159H37.0611C36.7486 31.0852 36.1065 30.1591 34.5668 30.1591C32.5497 30.1591 30.9645 31.7386 30.9645 34.6477C30.9645 37.5227 32.5043 39.1534 34.5611 39.1534ZM35.1349 37.4659C33.777 37.4659 33.0611 36.2727 33.0611 34.6364C33.0611 33.0114 33.7656 31.8466 35.1349 31.8466C36.4588 31.8466 37.1861 32.9432 37.1861 34.6364C37.1861 36.3295 36.4474 37.4659 35.1349 37.4659ZM43.4574 27.3636H41.4006V39H43.4574V27.3636ZM45.5724 39H47.6293V30.2727H45.5724V39ZM46.6065 29.0341C47.2599 29.0341 47.794 28.5341 47.794 27.9205C47.794 27.3011 47.2599 26.8011 46.6065 26.8011C45.9474 26.8011 45.4134 27.3011 45.4134 27.9205C45.4134 28.5341 45.9474 29.0341 46.6065 29.0341ZM51.8011 33.8864C51.8011 32.625 52.5625 31.8977 53.6477 31.8977C54.7102 31.8977 55.3466 32.5966 55.3466 33.7614V39H57.4034V33.4432C57.4091 31.3523 56.2159 30.1591 54.4148 30.1591C53.108 30.1591 52.2102 30.7841 51.8125 31.7557H51.7102V30.2727H49.7443V39H51.8011V33.8864ZM63.358 39.1705C65.392 39.1705 66.7898 38.1761 67.1534 36.6591L65.233 36.4432C64.9545 37.1818 64.2727 37.5682 63.3864 37.5682C62.0568 37.5682 61.1761 36.6932 61.1591 35.1989H67.2386V34.5682C67.2386 31.5057 65.3977 30.1591 63.25 30.1591C60.75 30.1591 59.1193 31.9943 59.1193 34.6875C59.1193 37.4261 60.7273 39.1705 63.358 39.1705ZM61.1648 33.8125C61.2273 32.6989 62.0511 31.7614 63.2784 31.7614C64.4602 31.7614 65.2557 32.625 65.267 33.8125H61.1648ZM0.579545 50.2102H3.32386V58H4.38068V50.2102H7.125V49.2727H0.579545V50.2102ZM11.854 55.3239C11.854 56.5511 10.9165 57.1136 10.1665 57.1136C9.33132 57.1136 8.73473 56.5 8.73473 55.5455V51.4545H7.72905V55.6136C7.72905 57.2841 8.61541 58.0852 9.84268 58.0852C10.8313 58.0852 11.479 57.5568 11.7859 56.892H11.854V58H12.8597V51.4545H11.854V55.3239ZM17.446 58.1364C18.7756 58.1364 19.7472 57.4716 20.054 56.483L19.0824 56.2102C18.8267 56.892 18.2344 57.233 17.446 57.233C16.2656 57.233 15.4517 56.4702 15.4048 55.0682H20.1562V54.642C20.1562 52.2045 18.7074 51.3693 17.3438 51.3693C15.571 51.3693 14.3949 52.767 14.3949 54.7784C14.3949 56.7898 15.554 58.1364 17.446 58.1364ZM15.4048 54.1989C15.473 53.1804 16.1932 52.2727 17.3438 52.2727C18.4347 52.2727 19.1335 53.0909 19.1335 54.1989H15.4048ZM26.3224 52.9205C26.0071 51.9915 25.2997 51.3693 24.0043 51.3693C22.6236 51.3693 21.6009 52.1534 21.6009 53.2614C21.6009 54.1648 22.1378 54.7699 23.3395 55.0511L24.4304 55.3068C25.0909 55.4602 25.402 55.7756 25.402 56.2273C25.402 56.7898 24.8054 57.25 23.8679 57.25C23.0455 57.25 22.5298 56.8963 22.3509 56.1932L21.3963 56.4318C21.6307 57.544 22.5469 58.1364 23.8849 58.1364C25.4062 58.1364 26.4418 57.3054 26.4418 56.1761C26.4418 55.2642 25.8707 54.6889 24.7031 54.4034L23.7315 54.1648C22.956 53.973 22.6065 53.7131 22.6065 53.2102C22.6065 52.6477 23.2031 52.2386 24.0043 52.2386C24.8821 52.2386 25.2443 52.7244 25.419 53.1761L26.3224 52.9205ZM30.4272 58.1364C31.6886 58.1364 32.1147 57.3523 32.3363 56.9943H32.4556V58H33.4272V49.2727H32.4215V52.4943H32.3363C32.1147 52.1534 31.7227 51.3693 30.4442 51.3693C28.7908 51.3693 27.6488 52.6818 27.6488 54.7443C27.6488 56.8239 28.7908 58.1364 30.4272 58.1364ZM30.5636 57.233C29.3022 57.233 28.6545 56.125 28.6545 54.7273C28.6545 53.3466 29.2852 52.2727 30.5636 52.2727C31.7908 52.2727 32.4386 53.2614 32.4386 54.7273C32.4386 56.2102 31.7738 57.233 30.5636 57.233ZM37.3349 58.1534C38.4769 58.1534 39.0735 57.5398 39.2781 57.1136H39.3292V58H40.3349V53.6875C40.3349 51.608 38.7496 51.3693 37.9144 51.3693C36.9258 51.3693 35.8008 51.7102 35.2894 52.9034L36.244 53.2443C36.4656 52.767 36.9897 52.2557 37.9485 52.2557C38.8732 52.2557 39.3292 52.7457 39.3292 53.5852V53.6193C39.3292 54.1051 38.8349 54.0625 37.6417 54.2159C36.4272 54.3736 35.1019 54.642 35.1019 56.142C35.1019 57.4205 36.0906 58.1534 37.3349 58.1534ZM37.4883 57.25C36.6871 57.25 36.1076 56.892 36.1076 56.1932C36.1076 55.4261 36.8065 55.1875 37.5906 55.0852C38.0167 55.0341 39.1587 54.9148 39.3292 54.7102V55.6307C39.3292 56.4489 38.6815 57.25 37.4883 57.25ZM42.5838 60.4545C43.4915 60.4545 44.1307 59.973 44.5099 58.9545L47.2969 51.4716L46.1974 51.4545L44.3906 56.6705H44.3224L42.5156 51.4545H41.4247L43.8452 58.0341L43.6577 58.5455C43.2912 59.5426 42.8395 59.6364 42.1065 59.4489L41.8509 60.3352C41.9531 60.3864 42.2429 60.4545 42.5838 60.4545ZM49.7173 56.8068H48.6264L48.5753 57.2841C48.4517 58.4389 48.2088 59.5895 48.098 60.1307H48.8651C49.0696 59.5511 49.5043 58.2386 49.6491 57.267L49.7173 56.8068ZM59.8647 51.4545H60.8874C60.8406 50.1378 59.6261 49.1534 57.9386 49.1534C56.2681 49.1534 54.9556 50.125 54.9556 51.5909C54.9556 52.767 55.8079 53.4659 57.1715 53.858L58.2454 54.1648C59.1658 54.4205 59.984 54.7443 59.984 55.6136C59.984 56.5682 59.0636 57.1989 57.8533 57.1989C56.8136 57.1989 55.8931 56.7386 55.8079 55.75H54.717C54.8192 57.1818 55.9783 58.1534 57.8533 58.1534C59.8647 58.1534 61.0067 57.0455 61.0067 55.6307C61.0067 53.9943 59.4556 53.4659 58.5522 53.2273L57.6658 52.9886C57.0181 52.8182 55.9783 52.4773 55.9783 51.5398C55.9783 50.7045 56.7454 50.0909 57.9045 50.0909C58.9613 50.0909 59.7624 50.5938 59.8647 51.4545ZM65.3523 58.1364C66.6818 58.1364 67.6534 57.4716 67.9602 56.483L66.9886 56.2102C66.733 56.892 66.1406 57.233 65.3523 57.233C64.1719 57.233 63.358 56.4702 63.3111 55.0682H68.0625V54.642C68.0625 52.2045 66.6136 51.3693 65.25 51.3693C63.4773 51.3693 62.3011 52.767 62.3011 54.7784C62.3011 56.7898 63.4602 58.1364 65.3523 58.1364ZM63.3111 54.1989C63.3793 53.1804 64.0994 52.2727 65.25 52.2727C66.3409 52.2727 67.0398 53.0909 67.0398 54.1989H63.3111ZM69.5923 60.4545H70.598V56.9943H70.6832C70.9048 57.3523 71.331 58.1364 72.5923 58.1364C74.2287 58.1364 75.3707 56.8239 75.3707 54.7443C75.3707 52.6818 74.2287 51.3693 72.5753 51.3693C71.2969 51.3693 70.9048 52.1534 70.6832 52.4943H70.5639V51.4545H69.5923V60.4545ZM70.581 54.7273C70.581 53.2614 71.2287 52.2727 72.456 52.2727C73.7344 52.2727 74.3651 53.3466 74.3651 54.7273C74.3651 56.125 73.7173 57.233 72.456 57.233C71.2457 57.233 70.581 56.2102 70.581 54.7273ZM79.7514 51.4545H78.3537V49.8864H77.348V51.4545H76.3594V52.3068H77.348V56.3977C77.348 57.5398 78.2685 58.0852 79.1207 58.0852C79.4957 58.0852 79.7344 58.017 79.8707 57.9659L79.6662 57.0625C79.581 57.0795 79.4446 57.1136 79.223 57.1136C78.7798 57.1136 78.3537 56.9773 78.3537 56.125V52.3068H79.7514V51.4545ZM83.9382 58.1364C85.2678 58.1364 86.2393 57.4716 86.5462 56.483L85.5746 56.2102C85.3189 56.892 84.7266 57.233 83.9382 57.233C82.7578 57.233 81.9439 56.4702 81.897 55.0682H86.6484V54.642C86.6484 52.2045 85.1996 51.3693 83.8359 51.3693C82.0632 51.3693 80.8871 52.767 80.8871 54.7784C80.8871 56.7898 82.0462 58.1364 83.9382 58.1364ZM81.897 54.1989C81.9652 53.1804 82.6854 52.2727 83.8359 52.2727C84.9268 52.2727 85.6257 53.0909 85.6257 54.1989H81.897ZM88.1783 58H89.1839V53.9091C89.1839 52.9503 89.8828 52.2727 90.6669 52.2727C91.4297 52.2727 91.9624 52.7713 91.9624 53.517V58H92.9851V53.7386C92.9851 52.8949 93.5135 52.2727 94.4339 52.2727C95.1499 52.2727 95.7635 52.652 95.7635 53.6193V58H96.7692V53.6193C96.7692 52.081 95.9425 51.3693 94.7749 51.3693C93.8374 51.3693 93.1513 51.7997 92.8146 52.4773H92.7464C92.4226 51.7784 91.8516 51.3693 90.9908 51.3693C90.1385 51.3693 89.5078 51.7784 89.2351 52.4773H89.1499V51.4545H88.1783V58ZM98.7443 58H99.7159V56.9943H99.8352C100.057 57.3523 100.483 58.1364 101.744 58.1364C103.381 58.1364 104.523 56.8239 104.523 54.7443C104.523 52.6818 103.381 51.3693 101.727 51.3693C100.449 51.3693 100.057 52.1534 99.8352 52.4943H99.75V49.2727H98.7443V58ZM99.733 54.7273C99.733 53.2614 100.381 52.2727 101.608 52.2727C102.886 52.2727 103.517 53.3466 103.517 54.7273C103.517 56.125 102.869 57.233 101.608 57.233C100.398 57.233 99.733 56.2102 99.733 54.7273ZM108.805 58.1364C110.135 58.1364 111.107 57.4716 111.413 56.483L110.442 56.2102C110.186 56.892 109.594 57.233 108.805 57.233C107.625 57.233 106.811 56.4702 106.764 55.0682H111.516V54.642C111.516 52.2045 110.067 51.3693 108.703 51.3693C106.93 51.3693 105.754 52.767 105.754 54.7784C105.754 56.7898 106.913 58.1364 108.805 58.1364ZM106.764 54.1989C106.832 53.1804 107.553 52.2727 108.703 52.2727C109.794 52.2727 110.493 53.0909 110.493 54.1989H106.764ZM113.045 58H114.051V53.858C114.051 52.9716 114.75 52.3239 115.705 52.3239C115.973 52.3239 116.25 52.375 116.318 52.392V51.3693C116.203 51.3608 115.939 51.3523 115.79 51.3523C115.006 51.3523 114.324 51.7955 114.085 52.4432H114.017V51.4545H113.045V58ZM123.936 49.2727H122.88L120.698 50.7216V51.7955L122.828 50.3807H122.88V58H123.936V49.2727ZM129.293 58.1193C131.219 58.1193 132.327 56.4872 132.327 53.6364C132.327 50.8068 131.202 49.1534 129.293 49.1534C127.384 49.1534 126.259 50.8068 126.259 53.6364C126.259 56.4872 127.367 58.1193 129.293 58.1193ZM129.293 57.1818C128.023 57.1818 127.282 55.9077 127.282 53.6364C127.282 51.3693 128.032 50.0739 129.293 50.0739C130.554 50.0739 131.304 51.3693 131.304 53.6364C131.304 55.9077 130.563 57.1818 129.293 57.1818ZM135.159 56.8068H134.068L134.017 57.2841C133.893 58.4389 133.65 59.5895 133.539 60.1307H134.306C134.511 59.5511 134.946 58.2386 135.091 57.267L135.159 56.8068ZM140.38 58H145.886V57.0625H141.829V56.9943L143.789 54.8977C145.289 53.2912 145.732 52.5412 145.732 51.5739C145.732 50.2273 144.641 49.1534 143.107 49.1534C141.577 49.1534 140.414 50.1932 140.414 51.7273H141.42C141.42 50.7344 142.063 50.0739 143.073 50.0739C144.019 50.0739 144.744 50.6534 144.744 51.5739C144.744 52.3793 144.271 52.9759 143.261 54.0795L140.38 57.233V58ZM150.492 58.1193C152.418 58.1193 153.526 56.4872 153.526 53.6364C153.526 50.8068 152.401 49.1534 150.492 49.1534C148.583 49.1534 147.458 50.8068 147.458 53.6364C147.458 56.4872 148.566 58.1193 150.492 58.1193ZM150.492 57.1818C149.222 57.1818 148.481 55.9077 148.481 53.6364C148.481 51.3693 149.231 50.0739 150.492 50.0739C151.754 50.0739 152.504 51.3693 152.504 53.6364C152.504 55.9077 151.762 57.1818 150.492 57.1818ZM155.146 58H160.651V57.0625H156.594V56.9943L158.555 54.8977C160.055 53.2912 160.498 52.5412 160.498 51.5739C160.498 50.2273 159.407 49.1534 157.873 49.1534C156.343 49.1534 155.18 50.1932 155.18 51.7273H156.185C156.185 50.7344 156.829 50.0739 157.839 50.0739C158.785 50.0739 159.509 50.6534 159.509 51.5739C159.509 52.3793 159.036 52.9759 158.026 54.0795L155.146 57.233V58ZM165.258 58.1193C167.184 58.1193 168.292 56.4872 168.292 53.6364C168.292 50.8068 167.167 49.1534 165.258 49.1534C163.349 49.1534 162.224 50.8068 162.224 53.6364C162.224 56.4872 163.332 58.1193 165.258 58.1193ZM165.258 57.1818C163.988 57.1818 163.246 55.9077 163.246 53.6364C163.246 51.3693 163.996 50.0739 165.258 50.0739C166.519 50.0739 167.269 51.3693 167.269 53.6364C167.269 55.9077 166.528 57.1818 165.258 57.1818ZM3.59659 106H5.67614L8.01136 97.8352H8.10227L10.4318 106H12.5114L15.7955 94.3636H13.5284L11.4318 102.92H11.3295L9.08523 94.3636H7.02273L4.78409 102.915H4.67614L2.57955 94.3636H0.3125L3.59659 106ZM17.1662 106H19.223V97.2727H17.1662V106ZM18.2003 96.0341C18.8537 96.0341 19.3878 95.5341 19.3878 94.9205C19.3878 94.3011 18.8537 93.8011 18.2003 93.8011C17.5412 93.8011 17.0071 94.3011 17.0071 94.9205C17.0071 95.5341 17.5412 96.0341 18.2003 96.0341ZM23.3949 100.886C23.3949 99.625 24.1562 98.8977 25.2415 98.8977C26.304 98.8977 26.9403 99.5966 26.9403 100.761V106H28.9972V100.443C29.0028 98.3523 27.8097 97.1591 26.0085 97.1591C24.7017 97.1591 23.804 97.7841 23.4062 98.7557H23.304V97.2727H21.3381V106H23.3949V100.886ZM35.446 97.2727H33.7244V95.1818H31.6676V97.2727H30.429V98.8636H31.6676V103.716C31.6562 105.358 32.8494 106.165 34.3949 106.119C34.9801 106.102 35.3835 105.989 35.6051 105.915L35.2585 104.307C35.1449 104.335 34.9119 104.386 34.6562 104.386C34.1392 104.386 33.7244 104.205 33.7244 103.375V98.8636H35.446V97.2727ZM40.9361 106.17C42.9702 106.17 44.3679 105.176 44.7315 103.659L42.8111 103.443C42.5327 104.182 41.8509 104.568 40.9645 104.568C39.6349 104.568 38.7543 103.693 38.7372 102.199H44.8168V101.568C44.8168 98.5057 42.9759 97.1591 40.8281 97.1591C38.3281 97.1591 36.6974 98.9943 36.6974 101.688C36.6974 104.426 38.3054 106.17 40.9361 106.17ZM38.7429 100.812C38.8054 99.6989 39.6293 98.7614 40.8565 98.7614C42.0384 98.7614 42.8338 99.625 42.8452 100.812H38.7429ZM46.5568 106H48.6136V100.869C48.6136 99.7614 49.4489 98.9773 50.5795 98.9773C50.9261 98.9773 51.358 99.0398 51.5341 99.0966V97.2045C51.3466 97.1705 51.0227 97.1477 50.7955 97.1477C49.7955 97.1477 48.9602 97.7159 48.642 98.7273H48.5511V97.2727H46.5568V106ZM56.8466 106H64.8239V104.239H59.7557V104.159L61.7614 102.119C64.0227 99.9489 64.6477 98.892 64.6477 97.5795C64.6477 95.6307 63.0625 94.2045 60.7216 94.2045C58.4148 94.2045 56.7784 95.6364 56.7784 97.8466H58.7841C58.7841 96.6591 59.5341 95.9148 60.6932 95.9148C61.8011 95.9148 62.625 96.5909 62.625 97.6875C62.625 98.6591 62.0341 99.3523 60.8864 100.517L56.8466 104.477V106ZM71.0852 106.222C73.892 106.227 75.5682 104.011 75.5682 100.193C75.5682 96.3977 73.8807 94.2045 71.0852 94.2045C68.2898 94.2045 66.608 96.392 66.6023 100.193C66.6023 104.006 68.2784 106.222 71.0852 106.222ZM71.0852 104.443C69.6364 104.443 68.7273 102.989 68.733 100.193C68.7386 97.4205 69.642 95.9602 71.0852 95.9602C72.5341 95.9602 73.4375 97.4205 73.4432 100.193C73.4432 102.989 72.5398 104.443 71.0852 104.443ZM77.456 106H85.4332V104.239H80.3651V104.159L82.3707 102.119C84.6321 99.9489 85.2571 98.892 85.2571 97.5795C85.2571 95.6307 83.6719 94.2045 81.331 94.2045C79.0241 94.2045 77.3878 95.6364 77.3878 97.8466H79.3935C79.3935 96.6591 80.1435 95.9148 81.3026 95.9148C82.4105 95.9148 83.2344 96.5909 83.2344 97.6875C83.2344 98.6591 82.6435 99.3523 81.4957 100.517L77.456 104.477V106ZM92.1264 94.3636H90.1207L87.2287 96.2216V98.1534L89.9503 96.4148H90.0185V106H92.1264V94.3636ZM105.487 97.5625H107.516C107.476 95.5966 105.8 94.2045 103.322 94.2045C100.879 94.2045 99.044 95.5795 99.0497 97.6364C99.0497 99.3068 100.237 100.267 102.152 100.761L103.476 101.102C104.732 101.42 105.561 101.812 105.567 102.716C105.561 103.71 104.618 104.375 103.243 104.375C101.925 104.375 100.902 103.784 100.817 102.562H98.7429C98.8281 104.875 100.55 106.176 103.26 106.176C106.05 106.176 107.669 104.784 107.675 102.733C107.669 100.716 106.004 99.7955 104.254 99.3807L103.163 99.108C102.209 98.8807 101.175 98.4773 101.186 97.5057C101.192 96.6307 101.976 95.9886 103.294 95.9886C104.55 95.9886 105.379 96.5739 105.487 97.5625ZM113.327 106.17C115.361 106.17 116.759 105.176 117.122 103.659L115.202 103.443C114.923 104.182 114.241 104.568 113.355 104.568C112.026 104.568 111.145 103.693 111.128 102.199H117.207V101.568C117.207 98.5057 115.366 97.1591 113.219 97.1591C110.719 97.1591 109.088 98.9943 109.088 101.688C109.088 104.426 110.696 106.17 113.327 106.17ZM111.134 100.812C111.196 99.6989 112.02 98.7614 113.247 98.7614C114.429 98.7614 115.224 99.625 115.236 100.812H111.134ZM118.947 106H121.004V100.693C121.004 99.6193 121.72 98.892 122.607 98.892C123.476 98.892 124.072 99.4773 124.072 100.375V106H126.089V100.557C126.089 99.5739 126.675 98.892 127.669 98.892C128.499 98.892 129.158 99.3807 129.158 100.46V106H131.22V100.142C131.22 98.1932 130.095 97.1591 128.493 97.1591C127.226 97.1591 126.26 97.7841 125.874 98.7557H125.783C125.447 97.767 124.601 97.1591 123.425 97.1591C122.254 97.1591 121.379 97.7614 121.016 98.7557H120.913V97.2727H118.947V106ZM137.17 106.17C139.205 106.17 140.602 105.176 140.966 103.659L139.045 103.443C138.767 104.182 138.085 104.568 137.199 104.568C135.869 104.568 134.989 103.693 134.972 102.199H141.051V101.568C141.051 98.5057 139.21 97.1591 137.062 97.1591C134.562 97.1591 132.932 98.9943 132.932 101.688C132.932 104.426 134.54 106.17 137.17 106.17ZM134.977 100.812C135.04 99.6989 135.864 98.7614 137.091 98.7614C138.273 98.7614 139.068 99.625 139.08 100.812H134.977ZM149.689 99.5795C149.405 98.1023 148.223 97.1591 146.178 97.1591C144.075 97.1591 142.643 98.1932 142.649 99.8068C142.643 101.08 143.428 101.92 145.104 102.267L146.592 102.58C147.393 102.756 147.768 103.08 147.768 103.574C147.768 104.17 147.121 104.619 146.143 104.619C145.2 104.619 144.587 104.21 144.411 103.426L142.405 103.619C142.661 105.222 144.007 106.17 146.149 106.17C148.331 106.17 149.871 105.04 149.876 103.386C149.871 102.142 149.07 101.381 147.422 101.023L145.933 100.705C145.047 100.506 144.695 100.199 144.7 99.6932C144.695 99.1023 145.348 98.6932 146.206 98.6932C147.155 98.6932 147.655 99.2102 147.814 99.7841L149.689 99.5795ZM155.93 97.2727H154.209V95.1818H152.152V97.2727H150.913V98.8636H152.152V103.716C152.141 105.358 153.334 106.165 154.879 106.119C155.464 106.102 155.868 105.989 156.089 105.915L155.743 104.307C155.629 104.335 155.396 104.386 155.141 104.386C154.624 104.386 154.209 104.205 154.209 103.375V98.8636H155.93V97.2727ZM161.42 106.17C163.455 106.17 164.852 105.176 165.216 103.659L163.295 103.443C163.017 104.182 162.335 104.568 161.449 104.568C160.119 104.568 159.239 103.693 159.222 102.199H165.301V101.568C165.301 98.5057 163.46 97.1591 161.312 97.1591C158.812 97.1591 157.182 98.9943 157.182 101.688C157.182 104.426 158.79 106.17 161.42 106.17ZM159.227 100.812C159.29 99.6989 160.114 98.7614 161.341 98.7614C162.523 98.7614 163.318 99.625 163.33 100.812H159.227ZM167.041 106H169.098V100.869C169.098 99.7614 169.933 98.9773 171.064 98.9773C171.411 98.9773 171.842 99.0398 172.018 99.0966V97.2045C171.831 97.1705 171.507 97.1477 171.28 97.1477C170.28 97.1477 169.445 97.7159 169.126 98.7273H169.036V97.2727H167.041V106ZM177.445 106H179.553V101.739H181.7L183.984 106H186.337L183.82 101.386C185.189 100.835 185.911 99.6648 185.911 98.0852C185.911 95.8636 184.479 94.3636 181.808 94.3636H177.445V106ZM179.553 99.9886V96.125H181.484C183.058 96.125 183.763 96.8466 183.763 98.0852C183.763 99.3239 183.058 99.9886 181.496 99.9886H179.553ZM191.499 106.17C193.533 106.17 194.93 105.176 195.294 103.659L193.374 103.443C193.095 104.182 192.413 104.568 191.527 104.568C190.197 104.568 189.317 103.693 189.3 102.199H195.379V101.568C195.379 98.5057 193.538 97.1591 191.391 97.1591C188.891 97.1591 187.26 98.9943 187.26 101.688C187.26 104.426 188.868 106.17 191.499 106.17ZM189.305 100.812C189.368 99.6989 190.192 98.7614 191.419 98.7614C192.601 98.7614 193.396 99.625 193.408 100.812H189.305ZM200.915 109.455C203.273 109.455 205.011 108.375 205.011 106.142V97.2727H202.983V98.7159H202.869C202.557 98.0852 201.903 97.1591 200.364 97.1591C198.347 97.1591 196.761 98.7386 196.761 101.608C196.761 104.455 198.347 105.875 200.358 105.875C201.852 105.875 202.551 105.074 202.869 104.432H202.972V106.085C202.972 107.369 202.119 107.898 200.949 107.898C199.71 107.898 199.165 107.312 198.915 106.801L197.062 107.25C197.438 108.472 198.693 109.455 200.915 109.455ZM200.932 104.261C199.574 104.261 198.858 103.205 198.858 101.597C198.858 100.011 199.562 98.8466 200.932 98.8466C202.256 98.8466 202.983 99.9432 202.983 101.597C202.983 103.261 202.244 104.261 200.932 104.261ZM207.119 106H209.176V97.2727H207.119V106ZM208.153 96.0341C208.807 96.0341 209.341 95.5341 209.341 94.9205C209.341 94.3011 208.807 93.8011 208.153 93.8011C207.494 93.8011 206.96 94.3011 206.96 94.9205C206.96 95.5341 207.494 96.0341 208.153 96.0341ZM218.189 99.5795C217.905 98.1023 216.723 97.1591 214.678 97.1591C212.575 97.1591 211.143 98.1932 211.149 99.8068C211.143 101.08 211.928 101.92 213.604 102.267L215.092 102.58C215.893 102.756 216.268 103.08 216.268 103.574C216.268 104.17 215.621 104.619 214.643 104.619C213.7 104.619 213.087 104.21 212.911 103.426L210.905 103.619C211.161 105.222 212.507 106.17 214.649 106.17C216.831 106.17 218.371 105.04 218.376 103.386C218.371 102.142 217.57 101.381 215.922 101.023L214.433 100.705C213.547 100.506 213.195 100.199 213.2 99.6932C213.195 99.1023 213.848 98.6932 214.706 98.6932C215.655 98.6932 216.155 99.2102 216.314 99.7841L218.189 99.5795ZM224.43 97.2727H222.709V95.1818H220.652V97.2727H219.413V98.8636H220.652V103.716C220.641 105.358 221.834 106.165 223.379 106.119C223.964 106.102 224.368 105.989 224.589 105.915L224.243 104.307C224.129 104.335 223.896 104.386 223.641 104.386C223.124 104.386 222.709 104.205 222.709 103.375V98.8636H224.43V97.2727ZM226.151 106H228.207V100.869C228.207 99.7614 229.043 98.9773 230.173 98.9773C230.52 98.9773 230.952 99.0398 231.128 99.0966V97.2045C230.94 97.1705 230.616 97.1477 230.389 97.1477C229.389 97.1477 228.554 97.7159 228.236 98.7273H228.145V97.2727H226.151V106ZM234.834 106.176C236.203 106.176 237.021 105.534 237.396 104.801H237.464V106H239.442V100.159C239.442 97.8523 237.561 97.1591 235.896 97.1591C234.061 97.1591 232.652 97.9773 232.197 99.5682L234.118 99.8409C234.322 99.2443 234.902 98.733 235.908 98.733C236.862 98.733 237.385 99.2216 237.385 100.08V100.114C237.385 100.705 236.766 100.733 235.226 100.898C233.533 101.08 231.913 101.585 231.913 103.551C231.913 105.267 233.169 106.176 234.834 106.176ZM235.368 104.665C234.51 104.665 233.896 104.273 233.896 103.517C233.896 102.727 234.584 102.398 235.504 102.267C236.044 102.193 237.124 102.057 237.391 101.841V102.869C237.391 103.841 236.607 104.665 235.368 104.665ZM245.868 97.2727H244.146V95.1818H242.089V97.2727H240.851V98.8636H242.089V103.716C242.078 105.358 243.271 106.165 244.817 106.119C245.402 106.102 245.805 105.989 246.027 105.915L245.68 104.307C245.567 104.335 245.334 104.386 245.078 104.386C244.561 104.386 244.146 104.205 244.146 103.375V98.8636H245.868V97.2727ZM247.588 106H249.645V97.2727H247.588V106ZM248.622 96.0341C249.276 96.0341 249.81 95.5341 249.81 94.9205C249.81 94.3011 249.276 93.8011 248.622 93.8011C247.963 93.8011 247.429 94.3011 247.429 94.9205C247.429 95.5341 247.963 96.0341 248.622 96.0341ZM255.567 106.17C258.124 106.17 259.749 104.369 259.749 101.67C259.749 98.9659 258.124 97.1591 255.567 97.1591C253.01 97.1591 251.385 98.9659 251.385 101.67C251.385 104.369 253.01 106.17 255.567 106.17ZM255.578 104.523C254.163 104.523 253.47 103.261 253.47 101.665C253.47 100.068 254.163 98.7898 255.578 98.7898C256.97 98.7898 257.663 100.068 257.663 101.665C257.663 103.261 256.97 104.523 255.578 104.523ZM263.551 100.886C263.551 99.625 264.312 98.8977 265.398 98.8977C266.46 98.8977 267.097 99.5966 267.097 100.761V106H269.153V100.443C269.159 98.3523 267.966 97.1591 266.165 97.1591C264.858 97.1591 263.96 97.7841 263.562 98.7557H263.46V97.2727H261.494V106H263.551V100.886ZM11.5455 126.182C11.5455 122.42 9.25 120.205 6.19886 120.205C3.14205 120.205 0.852273 122.42 0.852273 126.182C0.852273 129.938 3.14205 132.159 6.19886 132.159C9.25 132.159 11.5455 129.943 11.5455 126.182ZM9.42614 126.182C9.42614 128.83 8.09659 130.267 6.19886 130.267C4.30682 130.267 2.97159 128.83 2.97159 126.182C2.97159 123.534 4.30682 122.097 6.19886 122.097C8.09659 122.097 9.42614 123.534 9.42614 126.182ZM13.4474 135.273H15.5043V130.625H15.5895C15.9134 131.261 16.5895 132.153 18.0895 132.153C20.1463 132.153 21.6861 130.523 21.6861 127.648C21.6861 124.739 20.1009 123.159 18.0838 123.159C16.544 123.159 15.902 124.085 15.5895 124.716H15.4702V123.273H13.4474V135.273ZM15.4645 127.636C15.4645 125.943 16.1918 124.847 17.5156 124.847C18.8849 124.847 19.5895 126.011 19.5895 127.636C19.5895 129.273 18.8736 130.466 17.5156 130.466C16.2031 130.466 15.4645 129.33 15.4645 127.636ZM27.3111 132.17C29.3452 132.17 30.7429 131.176 31.1065 129.659L29.1861 129.443C28.9077 130.182 28.2259 130.568 27.3395 130.568C26.0099 130.568 25.1293 129.693 25.1122 128.199H31.1918V127.568C31.1918 124.506 29.3509 123.159 27.2031 123.159C24.7031 123.159 23.0724 124.994 23.0724 127.688C23.0724 130.426 24.6804 132.17 27.3111 132.17ZM25.1179 126.812C25.1804 125.699 26.0043 124.761 27.2315 124.761C28.4134 124.761 29.2088 125.625 29.2202 126.812H25.1179ZM34.9886 126.886C34.9886 125.625 35.75 124.898 36.8352 124.898C37.8977 124.898 38.5341 125.597 38.5341 126.761V132H40.5909V126.443C40.5966 124.352 39.4034 123.159 37.6023 123.159C36.2955 123.159 35.3977 123.784 35 124.756H34.8977V123.273H32.9318V132H34.9886V126.886ZM49.5795 125.58C49.2955 124.102 48.1136 123.159 46.0682 123.159C43.9659 123.159 42.5341 124.193 42.5398 125.807C42.5341 127.08 43.3182 127.92 44.9943 128.267L46.483 128.58C47.2841 128.756 47.6591 129.08 47.6591 129.574C47.6591 130.17 47.0114 130.619 46.0341 130.619C45.0909 130.619 44.4773 130.21 44.3011 129.426L42.2955 129.619C42.5511 131.222 43.8977 132.17 46.0398 132.17C48.2216 132.17 49.7614 131.04 49.767 129.386C49.7614 128.142 48.9602 127.381 47.3125 127.023L45.8239 126.705C44.9375 126.506 44.5852 126.199 44.5909 125.693C44.5852 125.102 45.2386 124.693 46.0966 124.693C47.0455 124.693 47.5455 125.21 47.7045 125.784L49.5795 125.58ZM0.579545 143.21H3.32386V151H4.38068V143.21H7.125V142.273H0.579545V143.21ZM11.854 148.324C11.854 149.551 10.9165 150.114 10.1665 150.114C9.33132 150.114 8.73473 149.5 8.73473 148.545V144.455H7.72905V148.614C7.72905 150.284 8.61541 151.085 9.84268 151.085C10.8313 151.085 11.479 150.557 11.7859 149.892H11.854V151H12.8597V144.455H11.854V148.324ZM17.446 151.136C18.7756 151.136 19.7472 150.472 20.054 149.483L19.0824 149.21C18.8267 149.892 18.2344 150.233 17.446 150.233C16.2656 150.233 15.4517 149.47 15.4048 148.068H20.1562V147.642C20.1562 145.205 18.7074 144.369 17.3438 144.369C15.571 144.369 14.3949 145.767 14.3949 147.778C14.3949 149.79 15.554 151.136 17.446 151.136ZM15.4048 147.199C15.473 146.18 16.1932 145.273 17.3438 145.273C18.4347 145.273 19.1335 146.091 19.1335 147.199H15.4048ZM26.3224 145.92C26.0071 144.991 25.2997 144.369 24.0043 144.369C22.6236 144.369 21.6009 145.153 21.6009 146.261C21.6009 147.165 22.1378 147.77 23.3395 148.051L24.4304 148.307C25.0909 148.46 25.402 148.776 25.402 149.227C25.402 149.79 24.8054 150.25 23.8679 150.25C23.0455 150.25 22.5298 149.896 22.3509 149.193L21.3963 149.432C21.6307 150.544 22.5469 151.136 23.8849 151.136C25.4062 151.136 26.4418 150.305 26.4418 149.176C26.4418 148.264 25.8707 147.689 24.7031 147.403L23.7315 147.165C22.956 146.973 22.6065 146.713 22.6065 146.21C22.6065 145.648 23.2031 145.239 24.0043 145.239C24.8821 145.239 25.2443 145.724 25.419 146.176L26.3224 145.92ZM30.4272 151.136C31.6886 151.136 32.1147 150.352 32.3363 149.994H32.4556V151H33.4272V142.273H32.4215V145.494H32.3363C32.1147 145.153 31.7227 144.369 30.4442 144.369C28.7908 144.369 27.6488 145.682 27.6488 147.744C27.6488 149.824 28.7908 151.136 30.4272 151.136ZM30.5636 150.233C29.3022 150.233 28.6545 149.125 28.6545 147.727C28.6545 146.347 29.2852 145.273 30.5636 145.273C31.7908 145.273 32.4386 146.261 32.4386 147.727C32.4386 149.21 31.7738 150.233 30.5636 150.233ZM37.3349 151.153C38.4769 151.153 39.0735 150.54 39.2781 150.114H39.3292V151H40.3349V146.688C40.3349 144.608 38.7496 144.369 37.9144 144.369C36.9258 144.369 35.8008 144.71 35.2894 145.903L36.244 146.244C36.4656 145.767 36.9897 145.256 37.9485 145.256C38.8732 145.256 39.3292 145.746 39.3292 146.585V146.619C39.3292 147.105 38.8349 147.062 37.6417 147.216C36.4272 147.374 35.1019 147.642 35.1019 149.142C35.1019 150.42 36.0906 151.153 37.3349 151.153ZM37.4883 150.25C36.6871 150.25 36.1076 149.892 36.1076 149.193C36.1076 148.426 36.8065 148.188 37.5906 148.085C38.0167 148.034 39.1587 147.915 39.3292 147.71V148.631C39.3292 149.449 38.6815 150.25 37.4883 150.25ZM42.5838 153.455C43.4915 153.455 44.1307 152.973 44.5099 151.955L47.2969 144.472L46.1974 144.455L44.3906 149.67H44.3224L42.5156 144.455H41.4247L43.8452 151.034L43.6577 151.545C43.2912 152.543 42.8395 152.636 42.1065 152.449L41.8509 153.335C41.9531 153.386 42.2429 153.455 42.5838 153.455ZM49.7173 149.807H48.6264L48.5753 150.284C48.4517 151.439 48.2088 152.589 48.098 153.131H48.8651C49.0696 152.551 49.5043 151.239 49.6491 150.267L49.7173 149.807ZM62.0124 142.273H60.9727V149.142H60.8874L56.1147 142.273H55.092V151H56.1488V144.148H56.234L60.9897 151H62.0124V142.273ZM66.6499 151.136C68.4226 151.136 69.6158 149.79 69.6158 147.761C69.6158 145.716 68.4226 144.369 66.6499 144.369C64.8771 144.369 63.6839 145.716 63.6839 147.761C63.6839 149.79 64.8771 151.136 66.6499 151.136ZM66.6499 150.233C65.3033 150.233 64.6896 149.074 64.6896 147.761C64.6896 146.449 65.3033 145.273 66.6499 145.273C67.9964 145.273 68.6101 146.449 68.6101 147.761C68.6101 149.074 67.9964 150.233 66.6499 150.233ZM76.2688 144.455H75.1779L73.3711 149.67H73.3029L71.4961 144.455H70.4052L72.8256 151H73.8484L76.2688 144.455ZM80.1062 151.136C81.4357 151.136 82.4073 150.472 82.7141 149.483L81.7425 149.21C81.4869 149.892 80.8945 150.233 80.1062 150.233C78.9258 150.233 78.1119 149.47 78.065 148.068H82.8164V147.642C82.8164 145.205 81.3675 144.369 80.0039 144.369C78.2312 144.369 77.055 145.767 77.055 147.778C77.055 149.79 78.2141 151.136 80.1062 151.136ZM78.065 147.199C78.1332 146.18 78.8533 145.273 80.0039 145.273C81.0948 145.273 81.7937 146.091 81.7937 147.199H78.065ZM84.3462 151H85.3519V146.909C85.3519 145.95 86.0508 145.273 86.8349 145.273C87.5977 145.273 88.1303 145.771 88.1303 146.517V151H89.1531V146.739C89.1531 145.895 89.6815 145.273 90.6019 145.273C91.3178 145.273 91.9315 145.652 91.9315 146.619V151H92.9371V146.619C92.9371 145.081 92.1104 144.369 90.9428 144.369C90.0053 144.369 89.3192 144.8 88.9826 145.477H88.9144C88.5906 144.778 88.0195 144.369 87.1587 144.369C86.3065 144.369 85.6758 144.778 85.4031 145.477H85.3178V144.455H84.3462V151ZM94.9123 151H95.8839V149.994H96.0032C96.2248 150.352 96.6509 151.136 97.9123 151.136C99.5487 151.136 100.691 149.824 100.691 147.744C100.691 145.682 99.5487 144.369 97.8952 144.369C96.6168 144.369 96.2248 145.153 96.0032 145.494H95.918V142.273H94.9123V151ZM95.9009 147.727C95.9009 146.261 96.5487 145.273 97.7759 145.273C99.0543 145.273 99.685 146.347 99.685 147.727C99.685 149.125 99.0373 150.233 97.7759 150.233C96.5657 150.233 95.9009 149.21 95.9009 147.727ZM104.973 151.136C106.303 151.136 107.275 150.472 107.581 149.483L106.61 149.21C106.354 149.892 105.762 150.233 104.973 150.233C103.793 150.233 102.979 149.47 102.932 148.068H107.684V147.642C107.684 145.205 106.235 144.369 104.871 144.369C103.098 144.369 101.922 145.767 101.922 147.778C101.922 149.79 103.081 151.136 104.973 151.136ZM102.932 147.199C103 146.18 103.721 145.273 104.871 145.273C105.962 145.273 106.661 146.091 106.661 147.199H102.932ZM109.213 151H110.219V146.858C110.219 145.972 110.918 145.324 111.873 145.324C112.141 145.324 112.418 145.375 112.486 145.392V144.369C112.371 144.361 112.107 144.352 111.958 144.352C111.174 144.352 110.492 144.795 110.253 145.443H110.185V144.455H109.213V151ZM120.104 142.273H119.048L116.866 143.722V144.795L118.996 143.381H119.048V151H120.104V142.273ZM125.461 151.119C127.387 151.119 128.495 149.487 128.495 146.636C128.495 143.807 127.37 142.153 125.461 142.153C123.552 142.153 122.427 143.807 122.427 146.636C122.427 149.487 123.535 151.119 125.461 151.119ZM125.461 150.182C124.191 150.182 123.45 148.908 123.45 146.636C123.45 144.369 124.2 143.074 125.461 143.074C126.722 143.074 127.472 144.369 127.472 146.636C127.472 148.908 126.731 150.182 125.461 150.182ZM131.327 149.807H130.236L130.185 150.284C130.061 151.439 129.818 152.589 129.707 153.131H130.474C130.679 152.551 131.114 151.239 131.259 150.267L131.327 149.807ZM136.548 151H142.054V150.062H137.997V149.994L139.957 147.898C141.457 146.291 141.9 145.541 141.9 144.574C141.9 143.227 140.809 142.153 139.275 142.153C137.745 142.153 136.582 143.193 136.582 144.727H137.588C137.588 143.734 138.231 143.074 139.241 143.074C140.187 143.074 140.912 143.653 140.912 144.574C140.912 145.379 140.439 145.976 139.429 147.08L136.548 150.233V151ZM146.66 151.119C148.586 151.119 149.694 149.487 149.694 146.636C149.694 143.807 148.569 142.153 146.66 142.153C144.751 142.153 143.626 143.807 143.626 146.636C143.626 149.487 144.734 151.119 146.66 151.119ZM146.66 150.182C145.39 150.182 144.649 148.908 144.649 146.636C144.649 144.369 145.399 143.074 146.66 143.074C147.922 143.074 148.672 144.369 148.672 146.636C148.672 148.908 147.93 150.182 146.66 150.182ZM151.314 151H156.819V150.062H152.762V149.994L154.723 147.898C156.223 146.291 156.666 145.541 156.666 144.574C156.666 143.227 155.575 142.153 154.041 142.153C152.511 142.153 151.348 143.193 151.348 144.727H152.353C152.353 143.734 152.997 143.074 154.007 143.074C154.953 143.074 155.677 143.653 155.677 144.574C155.677 145.379 155.204 145.976 154.194 147.08L151.314 150.233V151ZM161.426 151.119C163.352 151.119 164.46 149.487 164.46 146.636C164.46 143.807 163.335 142.153 161.426 142.153C159.517 142.153 158.392 143.807 158.392 146.636C158.392 149.487 159.5 151.119 161.426 151.119ZM161.426 150.182C160.156 150.182 159.414 148.908 159.414 146.636C159.414 144.369 160.164 143.074 161.426 143.074C162.687 143.074 163.437 144.369 163.437 146.636C163.437 148.908 162.696 150.182 161.426 150.182ZM3.59659 199H5.67614L8.01136 190.835H8.10227L10.4318 199H12.5114L15.7955 187.364H13.5284L11.4318 195.92H11.3295L9.08523 187.364H7.02273L4.78409 195.915H4.67614L2.57955 187.364H0.3125L3.59659 199ZM17.1662 199H19.223V190.273H17.1662V199ZM18.2003 189.034C18.8537 189.034 19.3878 188.534 19.3878 187.92C19.3878 187.301 18.8537 186.801 18.2003 186.801C17.5412 186.801 17.0071 187.301 17.0071 187.92C17.0071 188.534 17.5412 189.034 18.2003 189.034ZM23.3949 193.886C23.3949 192.625 24.1562 191.898 25.2415 191.898C26.304 191.898 26.9403 192.597 26.9403 193.761V199H28.9972V193.443C29.0028 191.352 27.8097 190.159 26.0085 190.159C24.7017 190.159 23.804 190.784 23.4062 191.756H23.304V190.273H21.3381V199H23.3949V193.886ZM35.446 190.273H33.7244V188.182H31.6676V190.273H30.429V191.864H31.6676V196.716C31.6562 198.358 32.8494 199.165 34.3949 199.119C34.9801 199.102 35.3835 198.989 35.6051 198.915L35.2585 197.307C35.1449 197.335 34.9119 197.386 34.6562 197.386C34.1392 197.386 33.7244 197.205 33.7244 196.375V191.864H35.446V190.273ZM40.9361 199.17C42.9702 199.17 44.3679 198.176 44.7315 196.659L42.8111 196.443C42.5327 197.182 41.8509 197.568 40.9645 197.568C39.6349 197.568 38.7543 196.693 38.7372 195.199H44.8168V194.568C44.8168 191.506 42.9759 190.159 40.8281 190.159C38.3281 190.159 36.6974 191.994 36.6974 194.688C36.6974 197.426 38.3054 199.17 40.9361 199.17ZM38.7429 193.812C38.8054 192.699 39.6293 191.761 40.8565 191.761C42.0384 191.761 42.8338 192.625 42.8452 193.812H38.7429ZM46.5568 199H48.6136V193.869C48.6136 192.761 49.4489 191.977 50.5795 191.977C50.9261 191.977 51.358 192.04 51.5341 192.097V190.205C51.3466 190.17 51.0227 190.148 50.7955 190.148C49.7955 190.148 48.9602 190.716 48.642 191.727H48.5511V190.273H46.5568V199ZM56.8466 199H64.8239V197.239H59.7557V197.159L61.7614 195.119C64.0227 192.949 64.6477 191.892 64.6477 190.58C64.6477 188.631 63.0625 187.205 60.7216 187.205C58.4148 187.205 56.7784 188.636 56.7784 190.847H58.7841C58.7841 189.659 59.5341 188.915 60.6932 188.915C61.8011 188.915 62.625 189.591 62.625 190.688C62.625 191.659 62.0341 192.352 60.8864 193.517L56.8466 197.477V199ZM71.0852 199.222C73.892 199.227 75.5682 197.011 75.5682 193.193C75.5682 189.398 73.8807 187.205 71.0852 187.205C68.2898 187.205 66.608 189.392 66.6023 193.193C66.6023 197.006 68.2784 199.222 71.0852 199.222ZM71.0852 197.443C69.6364 197.443 68.7273 195.989 68.733 193.193C68.7386 190.42 69.642 188.96 71.0852 188.96C72.5341 188.96 73.4375 190.42 73.4432 193.193C73.4432 195.989 72.5398 197.443 71.0852 197.443ZM77.456 199H85.4332V197.239H80.3651V197.159L82.3707 195.119C84.6321 192.949 85.2571 191.892 85.2571 190.58C85.2571 188.631 83.6719 187.205 81.331 187.205C79.0241 187.205 77.3878 188.636 77.3878 190.847H79.3935C79.3935 189.659 80.1435 188.915 81.3026 188.915C82.4105 188.915 83.2344 189.591 83.2344 190.688C83.2344 191.659 82.6435 192.352 81.4957 193.517L77.456 197.477V199ZM92.1264 187.364H90.1207L87.2287 189.222V191.153L89.9503 189.415H90.0185V199H92.1264V187.364ZM105.487 190.562H107.516C107.476 188.597 105.8 187.205 103.322 187.205C100.879 187.205 99.044 188.58 99.0497 190.636C99.0497 192.307 100.237 193.267 102.152 193.761L103.476 194.102C104.732 194.42 105.561 194.812 105.567 195.716C105.561 196.71 104.618 197.375 103.243 197.375C101.925 197.375 100.902 196.784 100.817 195.562H98.7429C98.8281 197.875 100.55 199.176 103.26 199.176C106.05 199.176 107.669 197.784 107.675 195.733C107.669 193.716 106.004 192.795 104.254 192.381L103.163 192.108C102.209 191.881 101.175 191.477 101.186 190.506C101.192 189.631 101.976 188.989 103.294 188.989C104.55 188.989 105.379 189.574 105.487 190.562ZM113.327 199.17C115.361 199.17 116.759 198.176 117.122 196.659L115.202 196.443C114.923 197.182 114.241 197.568 113.355 197.568C112.026 197.568 111.145 196.693 111.128 195.199H117.207V194.568C117.207 191.506 115.366 190.159 113.219 190.159C110.719 190.159 109.088 191.994 109.088 194.688C109.088 197.426 110.696 199.17 113.327 199.17ZM111.134 193.812C111.196 192.699 112.02 191.761 113.247 191.761C114.429 191.761 115.224 192.625 115.236 193.812H111.134ZM118.947 199H121.004V193.693C121.004 192.619 121.72 191.892 122.607 191.892C123.476 191.892 124.072 192.477 124.072 193.375V199H126.089V193.557C126.089 192.574 126.675 191.892 127.669 191.892C128.499 191.892 129.158 192.381 129.158 193.46V199H131.22V193.142C131.22 191.193 130.095 190.159 128.493 190.159C127.226 190.159 126.26 190.784 125.874 191.756H125.783C125.447 190.767 124.601 190.159 123.425 190.159C122.254 190.159 121.379 190.761 121.016 191.756H120.913V190.273H118.947V199ZM137.17 199.17C139.205 199.17 140.602 198.176 140.966 196.659L139.045 196.443C138.767 197.182 138.085 197.568 137.199 197.568C135.869 197.568 134.989 196.693 134.972 195.199H141.051V194.568C141.051 191.506 139.21 190.159 137.062 190.159C134.562 190.159 132.932 191.994 132.932 194.688C132.932 197.426 134.54 199.17 137.17 199.17ZM134.977 193.812C135.04 192.699 135.864 191.761 137.091 191.761C138.273 191.761 139.068 192.625 139.08 193.812H134.977ZM149.689 192.58C149.405 191.102 148.223 190.159 146.178 190.159C144.075 190.159 142.643 191.193 142.649 192.807C142.643 194.08 143.428 194.92 145.104 195.267L146.592 195.58C147.393 195.756 147.768 196.08 147.768 196.574C147.768 197.17 147.121 197.619 146.143 197.619C145.2 197.619 144.587 197.21 144.411 196.426L142.405 196.619C142.661 198.222 144.007 199.17 146.149 199.17C148.331 199.17 149.871 198.04 149.876 196.386C149.871 195.142 149.07 194.381 147.422 194.023L145.933 193.705C145.047 193.506 144.695 193.199 144.7 192.693C144.695 192.102 145.348 191.693 146.206 191.693C147.155 191.693 147.655 192.21 147.814 192.784L149.689 192.58ZM155.93 190.273H154.209V188.182H152.152V190.273H150.913V191.864H152.152V196.716C152.141 198.358 153.334 199.165 154.879 199.119C155.464 199.102 155.868 198.989 156.089 198.915L155.743 197.307C155.629 197.335 155.396 197.386 155.141 197.386C154.624 197.386 154.209 197.205 154.209 196.375V191.864H155.93V190.273ZM161.42 199.17C163.455 199.17 164.852 198.176 165.216 196.659L163.295 196.443C163.017 197.182 162.335 197.568 161.449 197.568C160.119 197.568 159.239 196.693 159.222 195.199H165.301V194.568C165.301 191.506 163.46 190.159 161.312 190.159C158.812 190.159 157.182 191.994 157.182 194.688C157.182 197.426 158.79 199.17 161.42 199.17ZM159.227 193.812C159.29 192.699 160.114 191.761 161.341 191.761C162.523 191.761 163.318 192.625 163.33 193.812H159.227ZM167.041 199H169.098V193.869C169.098 192.761 169.933 191.977 171.064 191.977C171.411 191.977 171.842 192.04 172.018 192.097V190.205C171.831 190.17 171.507 190.148 171.28 190.148C170.28 190.148 169.445 190.716 169.126 191.727H169.036V190.273H167.041V199ZM177.445 199H179.553V194.057H184.388V192.29H179.553V189.131H184.899V187.364H177.445V199ZM186.729 199H188.786V190.273H186.729V199ZM187.763 189.034C188.416 189.034 188.95 188.534 188.95 187.92C188.95 187.301 188.416 186.801 187.763 186.801C187.104 186.801 186.57 187.301 186.57 187.92C186.57 188.534 187.104 189.034 187.763 189.034ZM192.957 193.886C192.957 192.625 193.719 191.898 194.804 191.898C195.866 191.898 196.503 192.597 196.503 193.761V199H198.56V193.443C198.565 191.352 197.372 190.159 195.571 190.159C194.264 190.159 193.366 190.784 192.969 191.756H192.866V190.273H190.901V199H192.957V193.886ZM203.162 199.176C204.531 199.176 205.349 198.534 205.724 197.801H205.793V199H207.77V193.159C207.77 190.852 205.889 190.159 204.224 190.159C202.389 190.159 200.98 190.977 200.526 192.568L202.446 192.841C202.651 192.244 203.23 191.733 204.236 191.733C205.19 191.733 205.713 192.222 205.713 193.08V193.114C205.713 193.705 205.094 193.733 203.554 193.898C201.861 194.08 200.241 194.585 200.241 196.551C200.241 198.267 201.497 199.176 203.162 199.176ZM203.696 197.665C202.838 197.665 202.224 197.273 202.224 196.517C202.224 195.727 202.912 195.398 203.832 195.267C204.372 195.193 205.452 195.057 205.719 194.841V195.869C205.719 196.841 204.935 197.665 203.696 197.665ZM211.895 187.364H209.838V199H211.895V187.364ZM1.14773 225H3.25568V220.739H5.40341L7.6875 225H10.0398L7.52273 220.386C8.89205 219.835 9.61364 218.665 9.61364 217.085C9.61364 214.864 8.18182 213.364 5.51136 213.364H1.14773V225ZM3.25568 218.989V215.125H5.1875C6.76136 215.125 7.46591 215.847 7.46591 217.085C7.46591 218.324 6.76136 218.989 5.19886 218.989H3.25568ZM15.2017 225.17C17.2358 225.17 18.6335 224.176 18.9972 222.659L17.0767 222.443C16.7983 223.182 16.1165 223.568 15.2301 223.568C13.9006 223.568 13.0199 222.693 13.0028 221.199H19.0824V220.568C19.0824 217.506 17.2415 216.159 15.0938 216.159C12.5938 216.159 10.9631 217.994 10.9631 220.688C10.9631 223.426 12.571 225.17 15.2017 225.17ZM13.0085 219.812C13.071 218.699 13.8949 217.761 15.1222 217.761C16.304 217.761 17.0994 218.625 17.1108 219.812H13.0085ZM24.6179 228.455C26.9759 228.455 28.7145 227.375 28.7145 225.142V216.273H26.6861V217.716H26.5724C26.2599 217.085 25.6065 216.159 24.0668 216.159C22.0497 216.159 20.4645 217.739 20.4645 220.608C20.4645 223.455 22.0497 224.875 24.0611 224.875C25.5554 224.875 26.2543 224.074 26.5724 223.432H26.6747V225.085C26.6747 226.369 25.8224 226.898 24.652 226.898C23.4134 226.898 22.8679 226.312 22.6179 225.801L20.7656 226.25C21.1406 227.472 22.3963 228.455 24.6179 228.455ZM24.6349 223.261C23.277 223.261 22.5611 222.205 22.5611 220.597C22.5611 219.011 23.2656 217.847 24.6349 217.847C25.9588 217.847 26.6861 218.943 26.6861 220.597C26.6861 222.261 25.9474 223.261 24.6349 223.261ZM30.8224 225H32.8793V216.273H30.8224V225ZM31.8565 215.034C32.5099 215.034 33.044 214.534 33.044 213.92C33.044 213.301 32.5099 212.801 31.8565 212.801C31.1974 212.801 30.6634 213.301 30.6634 213.92C30.6634 214.534 31.1974 215.034 31.8565 215.034ZM41.892 218.58C41.608 217.102 40.4261 216.159 38.3807 216.159C36.2784 216.159 34.8466 217.193 34.8523 218.807C34.8466 220.08 35.6307 220.92 37.3068 221.267L38.7955 221.58C39.5966 221.756 39.9716 222.08 39.9716 222.574C39.9716 223.17 39.3239 223.619 38.3466 223.619C37.4034 223.619 36.7898 223.21 36.6136 222.426L34.608 222.619C34.8636 224.222 36.2102 225.17 38.3523 225.17C40.5341 225.17 42.0739 224.04 42.0795 222.386C42.0739 221.142 41.2727 220.381 39.625 220.023L38.1364 219.705C37.25 219.506 36.8977 219.199 36.9034 218.693C36.8977 218.102 37.5511 217.693 38.4091 217.693C39.358 217.693 39.858 218.21 40.017 218.784L41.892 218.58ZM48.1335 216.273H46.4119V214.182H44.3551V216.273H43.1165V217.864H44.3551V222.716C44.3438 224.358 45.5369 225.165 47.0824 225.119C47.6676 225.102 48.071 224.989 48.2926 224.915L47.946 223.307C47.8324 223.335 47.5994 223.386 47.3438 223.386C46.8267 223.386 46.4119 223.205 46.4119 222.375V217.864H48.1335V216.273ZM49.8537 225H51.9105V219.869C51.9105 218.761 52.7457 217.977 53.8764 217.977C54.223 217.977 54.6548 218.04 54.831 218.097V216.205C54.6435 216.17 54.3196 216.148 54.0923 216.148C53.0923 216.148 52.2571 216.716 51.9389 217.727H51.848V216.273H49.8537V225ZM58.5369 225.176C59.9062 225.176 60.7244 224.534 61.0994 223.801H61.1676V225H63.1449V219.159C63.1449 216.852 61.2642 216.159 59.5994 216.159C57.7642 216.159 56.3551 216.977 55.9006 218.568L57.821 218.841C58.0256 218.244 58.6051 217.733 59.6108 217.733C60.5653 217.733 61.0881 218.222 61.0881 219.08V219.114C61.0881 219.705 60.4688 219.733 58.929 219.898C57.2358 220.08 55.6165 220.585 55.6165 222.551C55.6165 224.267 56.8722 225.176 58.5369 225.176ZM59.071 223.665C58.2131 223.665 57.5994 223.273 57.5994 222.517C57.5994 221.727 58.2869 221.398 59.2074 221.267C59.7472 221.193 60.8267 221.057 61.0938 220.841V221.869C61.0938 222.841 60.3097 223.665 59.071 223.665ZM69.571 216.273H67.8494V214.182H65.7926V216.273H64.554V217.864H65.7926V222.716C65.7812 224.358 66.9744 225.165 68.5199 225.119C69.1051 225.102 69.5085 224.989 69.7301 224.915L69.3835 223.307C69.2699 223.335 69.0369 223.386 68.7812 223.386C68.2642 223.386 67.8494 223.205 67.8494 222.375V217.864H69.571V216.273ZM71.2912 225H73.348V216.273H71.2912V225ZM72.3253 215.034C72.9787 215.034 73.5128 214.534 73.5128 213.92C73.5128 213.301 72.9787 212.801 72.3253 212.801C71.6662 212.801 71.1321 213.301 71.1321 213.92C71.1321 214.534 71.6662 215.034 72.3253 215.034ZM79.2699 225.17C81.8267 225.17 83.4517 223.369 83.4517 220.67C83.4517 217.966 81.8267 216.159 79.2699 216.159C76.7131 216.159 75.0881 217.966 75.0881 220.67C75.0881 223.369 76.7131 225.17 79.2699 225.17ZM79.2812 223.523C77.8665 223.523 77.1733 222.261 77.1733 220.665C77.1733 219.068 77.8665 217.79 79.2812 217.79C80.6733 217.79 81.3665 219.068 81.3665 220.665C81.3665 222.261 80.6733 223.523 79.2812 223.523ZM87.2543 219.886C87.2543 218.625 88.0156 217.898 89.1009 217.898C90.1634 217.898 90.7997 218.597 90.7997 219.761V225H92.8565V219.443C92.8622 217.352 91.669 216.159 89.8679 216.159C88.5611 216.159 87.6634 216.784 87.2656 217.756H87.1634V216.273H85.1974V225H87.2543V219.886ZM102.95 225C106.496 225 108.598 222.807 108.598 219.17C108.598 215.545 106.496 213.364 103.03 213.364H99.0071V225H102.95ZM101.115 223.176V215.188H102.911C105.274 215.188 106.507 216.506 106.507 219.17C106.507 221.847 105.274 223.176 102.848 223.176H101.115ZM114.374 225.17C116.408 225.17 117.805 224.176 118.169 222.659L116.249 222.443C115.97 223.182 115.288 223.568 114.402 223.568C113.072 223.568 112.192 222.693 112.175 221.199H118.254V220.568C118.254 217.506 116.413 216.159 114.266 216.159C111.766 216.159 110.135 217.994 110.135 220.688C110.135 223.426 111.743 225.17 114.374 225.17ZM112.18 219.812C112.243 218.699 113.067 217.761 114.294 217.761C115.476 217.761 116.271 218.625 116.283 219.812H112.18ZM122.506 225.176C123.875 225.176 124.693 224.534 125.068 223.801H125.136V225H127.114V219.159C127.114 216.852 125.233 216.159 123.568 216.159C121.733 216.159 120.324 216.977 119.869 218.568L121.79 218.841C121.994 218.244 122.574 217.733 123.58 217.733C124.534 217.733 125.057 218.222 125.057 219.08V219.114C125.057 219.705 124.438 219.733 122.898 219.898C121.205 220.08 119.585 220.585 119.585 222.551C119.585 224.267 120.841 225.176 122.506 225.176ZM123.04 223.665C122.182 223.665 121.568 223.273 121.568 222.517C121.568 221.727 122.256 221.398 123.176 221.267C123.716 221.193 124.795 221.057 125.062 220.841V221.869C125.062 222.841 124.278 223.665 123.04 223.665ZM132.42 225.153C133.92 225.153 134.597 224.261 134.92 223.625H135.045V225H137.068V213.364H135.006V217.716H134.92C134.608 217.085 133.966 216.159 132.426 216.159C130.409 216.159 128.824 217.739 128.824 220.648C128.824 223.523 130.364 225.153 132.42 225.153ZM132.994 223.466C131.636 223.466 130.92 222.273 130.92 220.636C130.92 219.011 131.625 217.847 132.994 217.847C134.318 217.847 135.045 218.943 135.045 220.636C135.045 222.33 134.307 223.466 132.994 223.466ZM141.317 213.364H139.26V225H141.317V213.364ZM143.432 225H145.489V216.273H143.432V225ZM144.466 215.034C145.119 215.034 145.653 214.534 145.653 213.92C145.653 213.301 145.119 212.801 144.466 212.801C143.807 212.801 143.273 213.301 143.273 213.92C143.273 214.534 143.807 215.034 144.466 215.034ZM149.661 219.886C149.661 218.625 150.422 217.898 151.507 217.898C152.57 217.898 153.206 218.597 153.206 219.761V225H155.263V219.443C155.268 217.352 154.075 216.159 152.274 216.159C150.967 216.159 150.07 216.784 149.672 217.756H149.57V216.273H147.604V225H149.661V219.886ZM161.217 225.17C163.251 225.17 164.649 224.176 165.013 222.659L163.092 222.443C162.814 223.182 162.132 223.568 161.246 223.568C159.916 223.568 159.036 222.693 159.018 221.199H165.098V220.568C165.098 217.506 163.257 216.159 161.109 216.159C158.609 216.159 156.979 217.994 156.979 220.688C156.979 223.426 158.587 225.17 161.217 225.17ZM159.024 219.812C159.087 218.699 159.911 217.761 161.138 217.761C162.32 217.761 163.115 218.625 163.126 219.812H159.024ZM0.579545 236.21H3.32386V244H4.38068V236.21H7.125V235.273H0.579545V236.21ZM11.854 241.324C11.854 242.551 10.9165 243.114 10.1665 243.114C9.33132 243.114 8.73473 242.5 8.73473 241.545V237.455H7.72905V241.614C7.72905 243.284 8.61541 244.085 9.84268 244.085C10.8313 244.085 11.479 243.557 11.7859 242.892H11.854V244H12.8597V237.455H11.854V241.324ZM17.446 244.136C18.7756 244.136 19.7472 243.472 20.054 242.483L19.0824 242.21C18.8267 242.892 18.2344 243.233 17.446 243.233C16.2656 243.233 15.4517 242.47 15.4048 241.068H20.1562V240.642C20.1562 238.205 18.7074 237.369 17.3438 237.369C15.571 237.369 14.3949 238.767 14.3949 240.778C14.3949 242.79 15.554 244.136 17.446 244.136ZM15.4048 240.199C15.473 239.18 16.1932 238.273 17.3438 238.273C18.4347 238.273 19.1335 239.091 19.1335 240.199H15.4048ZM26.3224 238.92C26.0071 237.991 25.2997 237.369 24.0043 237.369C22.6236 237.369 21.6009 238.153 21.6009 239.261C21.6009 240.165 22.1378 240.77 23.3395 241.051L24.4304 241.307C25.0909 241.46 25.402 241.776 25.402 242.227C25.402 242.79 24.8054 243.25 23.8679 243.25C23.0455 243.25 22.5298 242.896 22.3509 242.193L21.3963 242.432C21.6307 243.544 22.5469 244.136 23.8849 244.136C25.4062 244.136 26.4418 243.305 26.4418 242.176C26.4418 241.264 25.8707 240.689 24.7031 240.403L23.7315 240.165C22.956 239.973 22.6065 239.713 22.6065 239.21C22.6065 238.648 23.2031 238.239 24.0043 238.239C24.8821 238.239 25.2443 238.724 25.419 239.176L26.3224 238.92ZM30.4272 244.136C31.6886 244.136 32.1147 243.352 32.3363 242.994H32.4556V244H33.4272V235.273H32.4215V238.494H32.3363C32.1147 238.153 31.7227 237.369 30.4442 237.369C28.7908 237.369 27.6488 238.682 27.6488 240.744C27.6488 242.824 28.7908 244.136 30.4272 244.136ZM30.5636 243.233C29.3022 243.233 28.6545 242.125 28.6545 240.727C28.6545 239.347 29.2852 238.273 30.5636 238.273C31.7908 238.273 32.4386 239.261 32.4386 240.727C32.4386 242.21 31.7738 243.233 30.5636 243.233ZM37.3349 244.153C38.4769 244.153 39.0735 243.54 39.2781 243.114H39.3292V244H40.3349V239.688C40.3349 237.608 38.7496 237.369 37.9144 237.369C36.9258 237.369 35.8008 237.71 35.2894 238.903L36.244 239.244C36.4656 238.767 36.9897 238.256 37.9485 238.256C38.8732 238.256 39.3292 238.746 39.3292 239.585V239.619C39.3292 240.105 38.8349 240.062 37.6417 240.216C36.4272 240.374 35.1019 240.642 35.1019 242.142C35.1019 243.42 36.0906 244.153 37.3349 244.153ZM37.4883 243.25C36.6871 243.25 36.1076 242.892 36.1076 242.193C36.1076 241.426 36.8065 241.188 37.5906 241.085C38.0167 241.034 39.1587 240.915 39.3292 240.71V241.631C39.3292 242.449 38.6815 243.25 37.4883 243.25ZM42.5838 246.455C43.4915 246.455 44.1307 245.973 44.5099 244.955L47.2969 237.472L46.1974 237.455L44.3906 242.67H44.3224L42.5156 237.455H41.4247L43.8452 244.034L43.6577 244.545C43.2912 245.543 42.8395 245.636 42.1065 245.449L41.8509 246.335C41.9531 246.386 42.2429 246.455 42.5838 246.455ZM49.7173 242.807H48.6264L48.5753 243.284C48.4517 244.439 48.2088 245.589 48.098 246.131H48.8651C49.0696 245.551 49.5043 244.239 49.6491 243.267L49.7173 242.807ZM58.4329 235.273V241.511C58.4329 242.598 57.913 243.182 57.0011 243.182C56.1701 243.182 55.5692 242.696 55.5692 241.955H54.5295C54.5295 243.297 55.5692 244.119 57.0011 244.119C58.5181 244.119 59.4897 243.186 59.4897 241.511V235.273H58.4329ZM63.3974 244.153C64.5394 244.153 65.136 243.54 65.3406 243.114H65.3917V244H66.3974V239.688C66.3974 237.608 64.8121 237.369 63.9769 237.369C62.9883 237.369 61.8633 237.71 61.3519 238.903L62.3065 239.244C62.5281 238.767 63.0522 238.256 64.011 238.256C64.9357 238.256 65.3917 238.746 65.3917 239.585V239.619C65.3917 240.105 64.8974 240.062 63.7042 240.216C62.4897 240.374 61.1644 240.642 61.1644 242.142C61.1644 243.42 62.1531 244.153 63.3974 244.153ZM63.5508 243.25C62.7496 243.25 62.1701 242.892 62.1701 242.193C62.1701 241.426 62.869 241.188 63.6531 241.085C64.0792 241.034 65.2212 240.915 65.3917 240.71V241.631C65.3917 242.449 64.744 243.25 63.5508 243.25ZM69.2386 240.062C69.2386 238.92 69.946 238.273 70.9091 238.273C71.8423 238.273 72.4091 238.882 72.4091 239.909V244H73.4148V239.841C73.4148 238.17 72.5241 237.369 71.1989 237.369C70.2102 237.369 69.5966 237.812 69.2898 238.477H69.2045V237.455H68.233V244H69.2386V240.062ZM79.3775 241.324C79.3775 242.551 78.44 243.114 77.69 243.114C76.8548 243.114 76.2582 242.5 76.2582 241.545V237.455H75.2525V241.614C75.2525 243.284 76.1388 244.085 77.3661 244.085C78.3548 244.085 79.0025 243.557 79.3093 242.892H79.3775V244H80.3832V237.455H79.3775V241.324ZM84.1513 244.153C85.2933 244.153 85.8899 243.54 86.0945 243.114H86.1456V244H87.1513V239.688C87.1513 237.608 85.5661 237.369 84.7308 237.369C83.7422 237.369 82.6172 237.71 82.1058 238.903L83.0604 239.244C83.282 238.767 83.8061 238.256 84.7649 238.256C85.6896 238.256 86.1456 238.746 86.1456 239.585V239.619C86.1456 240.105 85.6513 240.062 84.4581 240.216C83.2436 240.374 81.9183 240.642 81.9183 242.142C81.9183 243.42 82.907 244.153 84.1513 244.153ZM84.3047 243.25C83.5036 243.25 82.924 242.892 82.924 242.193C82.924 241.426 83.6229 241.188 84.407 241.085C84.8331 241.034 85.9751 240.915 86.1456 240.71V241.631C86.1456 242.449 85.4979 243.25 84.3047 243.25ZM88.9869 244H89.9925V239.858C89.9925 238.972 90.6914 238.324 91.646 238.324C91.9144 238.324 92.1914 238.375 92.2596 238.392V237.369C92.1445 237.361 91.8803 237.352 91.7312 237.352C90.9471 237.352 90.2653 237.795 90.0266 238.443H89.9585V237.455H88.9869V244ZM94.2987 246.455C95.2063 246.455 95.8455 245.973 96.2248 244.955L99.0117 237.472L97.9123 237.455L96.1055 242.67H96.0373L94.2305 237.455H93.1396L95.56 244.034L95.3725 244.545C95.006 245.543 94.5543 245.636 93.8214 245.449L93.5657 246.335C93.668 246.386 93.9577 246.455 94.2987 246.455ZM106.768 235.273H105.712L103.53 236.722V237.795L105.661 236.381H105.712V244H106.768V235.273ZM112.125 244.119C114.051 244.119 115.159 242.487 115.159 239.636C115.159 236.807 114.034 235.153 112.125 235.153C110.216 235.153 109.091 236.807 109.091 239.636C109.091 242.487 110.199 244.119 112.125 244.119ZM112.125 243.182C110.855 243.182 110.114 241.908 110.114 239.636C110.114 237.369 110.864 236.074 112.125 236.074C113.386 236.074 114.136 237.369 114.136 239.636C114.136 241.908 113.395 243.182 112.125 243.182ZM117.991 242.807H116.9L116.849 243.284C116.725 244.439 116.482 245.589 116.371 246.131H117.138C117.343 245.551 117.778 244.239 117.923 243.267L117.991 242.807ZM123.212 244H128.718V243.062H124.661V242.994L126.621 240.898C128.121 239.291 128.564 238.541 128.564 237.574C128.564 236.227 127.473 235.153 125.939 235.153C124.409 235.153 123.246 236.193 123.246 237.727H124.252C124.252 236.734 124.895 236.074 125.905 236.074C126.851 236.074 127.576 236.653 127.576 237.574C127.576 238.379 127.103 238.976 126.093 240.08L123.212 243.233V244ZM133.324 244.119C135.25 244.119 136.358 242.487 136.358 239.636C136.358 236.807 135.233 235.153 133.324 235.153C131.415 235.153 130.29 236.807 130.29 239.636C130.29 242.487 131.398 244.119 133.324 244.119ZM133.324 243.182C132.054 243.182 131.313 241.908 131.313 239.636C131.313 237.369 132.063 236.074 133.324 236.074C134.586 236.074 135.336 237.369 135.336 239.636C135.336 241.908 134.594 243.182 133.324 243.182ZM137.978 244H143.483V243.062H139.426V242.994L141.387 240.898C142.887 239.291 143.33 238.541 143.33 237.574C143.33 236.227 142.239 235.153 140.705 235.153C139.175 235.153 138.012 236.193 138.012 237.727H139.017C139.017 236.734 139.661 236.074 140.671 236.074C141.617 236.074 142.341 236.653 142.341 237.574C142.341 238.379 141.868 238.976 140.858 240.08L137.978 243.233V244ZM148.311 235.273H147.255L145.073 236.722V237.795L147.203 236.381H147.255V244H148.311V235.273Z" fill="black"/>
</svg>
