<svg width="28" height="28" viewBox="0 0 28 28" fill="none" xmlns="http://www.w3.org/2000/svg">
<path d="M0 0H24C26.2091 0 28 1.79086 28 4V24C28 26.2091 26.2091 28 24 28H0V0Z" fill="#FDB515"/>
<path d="M21.7824 19.833L18.6666 16.7177C18.5259 16.5771 18.3353 16.499 18.1353 16.499H17.6259C18.4884 15.396 19.001 14.0086 19.001 12.4994C19.001 8.90909 16.0914 6 12.5005 6C8.90959 6 6 8.90909 6 12.4994C6 16.0896 8.90959 18.9987 12.5005 18.9987C14.01 18.9987 15.3976 18.4863 16.5008 17.6239V18.1332C16.5008 18.3332 16.5789 18.5238 16.7195 18.6644L19.8354 21.7797C20.1292 22.0734 20.6042 22.0734 20.8948 21.7797L21.7793 20.8954C22.0731 20.6017 22.0731 20.1267 21.7824 19.833ZM12.5005 16.499C10.2909 16.499 8.50018 14.7116 8.50018 12.4994C8.50018 10.2902 10.2878 8.49976 12.5005 8.49976C14.71 8.49976 16.5008 10.2871 16.5008 12.4994C16.5008 14.7085 14.7131 16.499 12.5005 16.499Z" fill="black"/>
</svg>
