<svg width="30" height="30" viewBox="0 0 30 30" fill="none" xmlns="http://www.w3.org/2000/svg">
<path fill-rule="evenodd" clip-rule="evenodd" d="M15.1266 3.94355e-05C6.77768 -0.0187252 0.00939073 6.66148 9.86945e-06 14.932C-0.00937099 23.2119 6.6698 29.9812 14.8734 30C23.2223 30.0187 29.9906 23.3385 30 15.068C30.0094 6.79283 23.3302 0.0234952 15.1266 3.94355e-05ZM22.4719 11.1697C22.4812 11.3339 22.4812 11.5027 22.4812 11.6669C22.4812 16.7615 18.6023 22.6349 11.515 22.6349C9.33866 22.6349 7.31239 21.9969 5.60507 20.9038C5.90526 20.9413 6.21483 20.9554 6.5244 20.9554C8.33021 20.9554 9.99062 20.3409 11.3133 19.3041C9.62477 19.2713 8.20357 18.1595 7.71108 16.6255C7.9456 16.6724 8.1895 16.6959 8.4334 16.6959C8.78518 16.6959 9.12758 16.6489 9.45122 16.5598C7.68762 16.208 6.36023 14.6458 6.36023 12.7787C6.36023 12.76 6.36023 12.7459 6.36023 12.7318C6.88087 13.0227 7.47186 13.1963 8.10507 13.215C7.06849 12.5254 6.38837 11.3432 6.38837 10.0063C6.38837 9.2979 6.58068 8.63645 6.90901 8.06882C8.80863 10.4003 11.651 11.9343 14.8546 12.0985C14.7889 11.8171 14.7561 11.5215 14.7561 11.2213C14.7561 9.09149 16.4822 7.36515 18.6116 7.36515C19.7186 7.36515 20.7223 7.83426 21.4259 8.58485C22.303 8.41128 23.1285 8.09228 23.8743 7.65131C23.5882 8.55201 22.9737 9.30729 22.181 9.78578C22.9597 9.69196 23.7054 9.48555 24.3949 9.18062C23.879 9.94997 23.2223 10.6255 22.4719 11.1697Z" fill="#007176"/>
</svg>
