<svg width="21" height="21" viewBox="0 0 21 21" fill="none" xmlns="http://www.w3.org/2000/svg">
<path fill-rule="evenodd" clip-rule="evenodd" d="M10.7511 0.68423C5.18514 0.671721 0.672947 5.12519 0.666694 10.6389C0.66044 16.1588 5.11322 20.6717 10.5823 20.6842C16.1482 20.6967 20.6604 16.2432 20.6667 10.7296C20.6729 5.21276 16.2202 0.699868 10.7511 0.68423ZM15.6479 8.13065C15.6542 8.24011 15.6542 8.3527 15.6542 8.46216C15.6542 11.8586 13.0682 15.7741 8.34336 15.7741C6.89246 15.7741 5.54161 15.3488 4.4034 14.6201C4.60353 14.6451 4.80991 14.6545 5.01629 14.6545C6.22016 14.6545 7.3271 14.2448 8.2089 13.5536C7.0832 13.5317 6.13573 12.7905 5.8074 11.7679C5.96375 11.7991 6.12635 11.8148 6.28895 11.8148C6.52347 11.8148 6.75174 11.7835 6.9675 11.7241C5.79177 11.4895 4.90684 10.4481 4.90684 9.20336C4.90684 9.19085 4.90684 9.18147 4.90684 9.17209C5.25393 9.36599 5.64793 9.48171 6.07007 9.49422C5.37901 9.03448 4.9256 8.24637 4.9256 7.35505C4.9256 6.88281 5.05381 6.44184 5.27269 6.06342C6.53911 7.61775 8.43404 8.64043 10.5698 8.74989C10.526 8.56224 10.5041 8.36521 10.5041 8.16506C10.5041 6.7452 11.6548 5.5943 13.0744 5.5943C13.8124 5.5943 14.4816 5.90705 14.9506 6.40744C15.5354 6.29172 16.0857 6.07906 16.5829 5.78508C16.3921 6.38554 15.9825 6.88906 15.4541 7.20806C15.9731 7.14551 16.4703 7.0079 16.93 6.80462C16.586 7.31752 16.1482 7.76787 15.6479 8.13065Z" fill="#FDB515"/>
</svg>
