<svg width="30" height="30" viewBox="0 0 30 30" fill="none" xmlns="http://www.w3.org/2000/svg">
<path d="M15.0208 9.75982e-06C6.73885 -0.00937101 -0.0142912 6.74478 -0.000222198 15.0327C0.0138468 23.208 6.70133 29.9481 14.8567 29.9997C23.1621 30.0513 29.9668 23.3487 29.9997 15.0843C30.0278 6.79168 23.2934 0.00939053 15.0208 9.75982e-06ZM23.5232 19.3103C23.3169 20.0795 22.7166 20.6893 21.9522 20.8957C20.564 21.2709 15.0021 21.2709 15.0021 21.2709C15.0021 21.2709 9.43542 21.2709 8.05196 20.8957C7.28754 20.6893 6.68257 20.0842 6.48092 19.3103C6.11043 17.9126 6.11043 14.9999 6.11043 14.9999C6.11043 14.9999 6.11043 12.0871 6.48092 10.6894C6.68726 9.92017 7.28754 9.31042 8.05196 9.10404C9.44011 8.72881 15.0021 8.72881 15.0021 8.72881C15.0021 8.72881 20.5687 8.72881 21.9522 9.10404C22.7166 9.31042 23.3216 9.91548 23.5232 10.6894C23.8937 12.0871 23.8937 14.9999 23.8937 14.9999C23.8937 14.9999 23.8937 17.9126 23.5232 19.3103Z" fill="#007176"/>
<path d="M13.1785 17.6451L17.8306 14.9997L13.1785 12.3543V17.6451Z" fill="#007176"/>
</svg>
