<svg width="20" height="21" viewBox="0 0 20 21" fill="none" xmlns="http://www.w3.org/2000/svg">
<path d="M10.014 0.684211C4.49273 0.677957 -0.00936473 5.18072 1.46287e-05 10.706C0.00939399 16.1562 4.46772 20.6496 9.90462 20.684C15.4416 20.7184 19.9781 16.25 19.9999 10.7404C20.0187 5.21199 15.5291 0.690464 10.014 0.684211ZM15.6823 13.5577C15.5447 14.0706 15.1446 14.4771 14.6349 14.6146C13.7095 14.8648 10.0015 14.8648 10.0015 14.8648C10.0015 14.8648 6.29044 14.8648 5.36814 14.6146C4.85852 14.4771 4.45521 14.0737 4.32077 13.5577C4.07378 12.6259 4.07378 10.6841 4.07378 10.6841C4.07378 10.6841 4.07378 8.74229 4.32077 7.81047C4.45834 7.29765 4.85852 6.89115 5.36814 6.75357C6.29357 6.50341 10.0015 6.50341 10.0015 6.50341C10.0015 6.50341 13.7126 6.50341 14.6349 6.75357C15.1446 6.89115 15.5479 7.29453 15.6823 7.81047C15.9293 8.74229 15.9293 10.6841 15.9293 10.6841C15.9293 10.6841 15.9293 12.6259 15.6823 13.5577Z" fill="#FDB515"/>
<path d="M8.78537 12.4477L11.8868 10.6841L8.78537 8.92053V12.4477Z" fill="#FDB515"/>
</svg>
